<svg id="Layer_1" data-name="Layer 1" xmlns="http://www.w3.org/2000/svg" viewBox="0 0 35.8 35.8"><defs><style>.cls-1{fill:none;stroke:#ee7532;stroke-miterlimit:10;stroke-width:2.74px;}.cls-2{fill:#ee7532;}</style></defs><title>CertIcon</title><circle class="cls-1" cx="17.9" cy="17.9" r="16.53"/><path class="cls-2" d="M783,2060.74a4.35,4.35,0,0,0-.44-1.2c-1.22-2.4-3.3-4.36-4.1-6.93a7.26,7.26,0,0,1,.37-5.29,6.35,6.35,0,0,1,4.55-3.49,7.05,7.05,0,0,1,5.76,1.73l0.14,0.13a9.11,9.11,0,0,1,2.5,5.74,23.35,23.35,0,0,1-.51,6.35c-1-1.81-2.91-2.92-4.61-4.12a5.85,5.85,0,0,1-1.94-2,4.44,4.44,0,0,1-.36-2.6,3.52,3.52,0,0,1,.65-1.76,4.7,4.7,0,0,1,2.56-1.33,6.54,6.54,0,0,0-4.73.15,5.16,5.16,0,0,0-3,3.61,6.94,6.94,0,0,0,.89,4.42c0.7,1.36,1.63,2.6,2.33,4a6.88,6.88,0,0,1,.86,4.43c-0.05.25-.26,0.57-0.49,0.45a0.39,0.39,0,0,1-.16-0.18A7.07,7.07,0,0,1,783,2060.74Z" transform="translate(-765.54 -2034.74)"/><path class="cls-2" d="M791.83,2057.39c0.19-1.38.37-2.54,0.5-3.7a9.39,9.39,0,0,0-.79-5.46,0.86,0.86,0,0,1,.45-1.38,3,3,0,0,1,3.25.2,2.86,2.86,0,0,1,1,3C795.87,2052,794,2055.25,791.83,2057.39Z" transform="translate(-765.54 -2034.74)"/><path class="cls-2" d="M775.17,2043.59a4.5,4.5,0,0,1,2.71.88,1.63,1.63,0,0,1,.11,2.73,1.39,1.39,0,0,0-.38,1,1.17,1.17,0,0,1-2.12.63c-1.13-1.12-1.83-2.64-3.3-3.47-0.54-.31-0.14-0.65.19-0.86A6.19,6.19,0,0,1,775.17,2043.59Z" transform="translate(-765.54 -2034.74)"/></svg>