<svg id="Layer_1" data-name="Layer 1" xmlns="http://www.w3.org/2000/svg" viewBox="0 0 35.8 35.8"><defs><style>.cls-1{fill:#f9e92b;}.cls-2{fill:none;stroke:#f9e92b;stroke-miterlimit:10;stroke-width:2.74px;}</style></defs><title>GlobeIcon</title><path class="cls-1" d="M788.06,2161.5c-0.76-4.66-2.54-7.93-4.62-7.93s-3.86,3.27-4.62,7.93h9.24Zm-9.63,5a32.72,32.72,0,0,0,.17,3.34h9.67a32.48,32.48,0,0,0,0-6.68h-9.67A32.72,32.72,0,0,0,778.43,2166.51Zm16.95-5a13,13,0,0,0-8.25-7.39,17.62,17.62,0,0,1,2.61,7.39h5.64Zm-15.63-7.39a13,13,0,0,0-8.24,7.39h5.64a17.55,17.55,0,0,1,2.6-7.39h0Zm16.19,9.06h-6c0.11,1.1.17,2.22,0.17,3.34s-0.06,2.24-.17,3.34h6a12.83,12.83,0,0,0,.45-3.34,13.06,13.06,0,0,0-.44-3.34h0Zm-19.18,3.34c0-1.12.06-2.24,0.17-3.34h-6a12.65,12.65,0,0,0,0,6.68h6C776.83,2168.76,776.76,2167.63,776.76,2166.51Zm2.06,5c0.76,4.66,2.54,7.93,4.62,7.93s3.86-3.27,4.62-7.93h-9.24Zm8.31,7.39a13,13,0,0,0,8.25-7.39h-5.64A17.62,17.62,0,0,1,787.14,2178.91Zm-15.63-7.39a13,13,0,0,0,8.25,7.39,17.62,17.62,0,0,1-2.61-7.39h-5.64Z" transform="translate(-765.54 -2148.61)"/><circle class="cls-2" cx="17.9" cy="17.9" r="16.53"/></svg>