<svg id="Layer_1" data-name="Layer 1" xmlns="http://www.w3.org/2000/svg" viewBox="0 0 35.8 35.8"><defs><style>.cls-1{fill:none;stroke:#eb432e;stroke-miterlimit:10;stroke-width:2.74px;}.cls-2{fill:#eb432e;}</style></defs><title>LeafIcon</title><circle class="cls-1" cx="17.9" cy="17.9" r="16.53"/><path class="cls-2" d="M794.49,1990.93a16.7,16.7,0,0,1-10.57,10.58A16.89,16.89,0,0,1,794.49,1990.93Z" transform="translate(-765.54 -1977.8)"/><path class="cls-2" d="M795.65,2002c-2.6,1.75-8.21,1.77-11.67,0A13.29,13.29,0,0,1,795.65,2002Z" transform="translate(-765.54 -1977.8)"/><path class="cls-2" d="M783.43,1982.58c3.08,9,2.88,10.85,0,19-1-3.25-2.21-6.24-2.2-9.51S782.43,1985.83,783.43,1982.58Z" transform="translate(-765.54 -1977.8)"/><path class="cls-2" d="M772.38,1990.92c4.26,1.08,9.8,6.59,10.6,10.57C779,2000.73,773.57,1995.3,772.38,1990.92Z" transform="translate(-765.54 -1977.8)"/><path class="cls-2" d="M782.84,2002c-2.49,1.76-7.88,1.79-11.61,0A13.14,13.14,0,0,1,782.84,2002Z" transform="translate(-765.54 -1977.8)"/><path class="cls-2" d="M783.1,2002.44c-0.23,1.33-1.91,3-3.63,3.64A5.82,5.82,0,0,1,783.1,2002.44Z" transform="translate(-765.54 -1977.8)"/><path class="cls-2" d="M783.78,2002.44c0.23,1.33,1.91,3,3.63,3.64A5.82,5.82,0,0,0,783.78,2002.44Z" transform="translate(-765.54 -1977.8)"/></svg>