<svg id="Layer_1" data-name="Layer 1" xmlns="http://www.w3.org/2000/svg" xmlns:xlink="http://www.w3.org/1999/xlink" viewBox="0 0 226.86 137.45"><defs><style>.cls-1{fill:#414042;}.cls-2{fill:url(#linear-gradient);}.cls-3{fill:url(#linear-gradient-2);}.cls-4{fill:url(#linear-gradient-3);}.cls-5{fill:url(#linear-gradient-4);}.cls-6{fill:url(#linear-gradient-5);}.cls-7{fill:url(#linear-gradient-6);}.cls-8{fill:url(#linear-gradient-7);}.cls-9{fill:url(#linear-gradient-8);}.cls-10{fill:url(#linear-gradient-9);}.cls-11{fill:url(#linear-gradient-10);}.cls-12{fill:url(#linear-gradient-11);}.cls-13{fill:url(#linear-gradient-12);}.cls-14{fill:url(#linear-gradient-13);}.cls-15{fill:#231f20;}.cls-16{fill:#58595b;}</style><linearGradient id="linear-gradient" x1="516.16" y1="2014.25" x2="516.16" y2="1975.83" gradientUnits="userSpaceOnUse"><stop offset="0" stop-color="#faea2f"/><stop offset="0.86" stop-color="#ec422f"/></linearGradient><linearGradient id="linear-gradient-2" x1="73.29" y1="56.69" x2="73.29" y2="18.27" xlink:href="#linear-gradient"/><linearGradient id="linear-gradient-3" x1="577.77" y1="2014.25" x2="577.77" y2="1975.83" xlink:href="#linear-gradient"/><linearGradient id="linear-gradient-4" x1="601.02" y1="2014.25" x2="601.02" y2="1975.83" xlink:href="#linear-gradient"/><linearGradient id="linear-gradient-5" x1="152.56" y1="56.69" x2="152.56" y2="18.27" xlink:href="#linear-gradient"/><linearGradient id="linear-gradient-6" x1="508.71" y1="2024.71" x2="508.71" y2="1966.45" xlink:href="#linear-gradient"/><linearGradient id="linear-gradient-7" x1="626.72" y1="2074.54" x2="626.72" y2="2036.23" xlink:href="#linear-gradient"/><linearGradient id="linear-gradient-8" x1="200.22" y1="116.99" x2="200.22" y2="78.67" xlink:href="#linear-gradient"/><linearGradient id="linear-gradient-9" x1="603.76" y1="2074.54" x2="603.76" y2="2036.23" xlink:href="#linear-gradient"/><linearGradient id="linear-gradient-10" x1="105.54" y1="116.99" x2="105.54" y2="78.67" xlink:href="#linear-gradient"/><linearGradient id="linear-gradient-11" x1="690.38" y1="2074.54" x2="690.38" y2="2036.23" xlink:href="#linear-gradient"/><linearGradient id="linear-gradient-12" x1="178.99" y1="116.99" x2="178.99" y2="78.67" xlink:href="#linear-gradient"/><linearGradient id="linear-gradient-13" x1="569.57" y1="2085" x2="569.57" y2="2026.74" xlink:href="#linear-gradient"/></defs><title>Logo</title><path class="cls-1" d="M602.85,2074.68l-1.91,1.91H591v-14.26l1.91-1.91,0.91,0v-9.75h-3.09V2038l1.91-1.91,3,1.91h7.08a7.08,7.08,0,0,1,7.14,7.08v9.46a4.5,4.5,0,0,1-4,4.47,2.91,2.91,0,0,1,.36.3,2.81,2.81,0,0,1,.79,2l0,0.32a1.39,1.39,0,0,0,1.39,1.39h0.09a1.39,1.39,0,0,0,1.39-1.39v-2.29l1.91-1.91,1.09,1.91v13.72a3.55,3.55,0,0,1-3.74,3.51h-2.82A4,4,0,0,1,602.85,2074.68Zm-0.51-10.28v-3.14h0a2.87,2.87,0,0,0-2.86-2.86h-1.55v4h3Zm1.06-10.88v-1a2.08,2.08,0,0,0-2.07-2.07h-2.93v5.16h2.93A2.07,2.07,0,0,0,603.4,2053.53Z" transform="translate(-472.61 -1957.56)"/><path class="cls-1" d="M517.93,1977.67h-7.37a5.42,5.42,0,0,0-5.4,5.41v27.8a5.42,5.42,0,0,0,5.4,5.4h7.37a5.42,5.42,0,0,0,5.41-5.4v-27.8A5.43,5.43,0,0,0,517.93,1977.67Zm0.31,23.15a1.81,1.81,0,0,1-1.8,1.8h-4.37a1.81,1.81,0,0,1-1.8-1.8v-9.27a1.81,1.81,0,0,1,1.8-1.8h4.37a1.81,1.81,0,0,1,1.8,1.8v9.27Z" transform="translate(-472.61 -1957.56)"/><path class="cls-1" d="M582.75,1996.06L582,1996c2.8-.45,4-2.14,4-4.64v-6.39a7.23,7.23,0,0,0-6.91-7.27H568.83l-2.32-1.91-1.91,1.91v12.75h4.64v10.29l-1.05.08-1.91,1.91v13.58h16.48a4.56,4.56,0,0,0,4.38-4.59v-11.26C587.12,1998,585.11,1996.42,582.75,1996.06Zm-8.78-5.64h3.13a2.24,2.24,0,0,1,2.24,2.24v0.65a1.29,1.29,0,0,1-1.29,1.29H574v-4.19Zm6.79,16.37a1.37,1.37,0,0,1-1.37,1.37h-5.32V2003h3.57a3.13,3.13,0,0,1,3.12,3.12v0.65Z" transform="translate(-472.61 -1957.56)"/><path class="cls-1" d="M602.79,1977.67h-7.37a5.42,5.42,0,0,0-5.4,5.41v27.8a5.42,5.42,0,0,0,5.4,5.4h7.37a5.42,5.42,0,0,0,5.41-5.4v-27.8A5.43,5.43,0,0,0,602.79,1977.67Zm0.31,23.15a1.81,1.81,0,0,1-1.8,1.8h-4.37a1.81,1.81,0,0,1-1.8-1.8v-9.27a1.81,1.81,0,0,1,1.8-1.8h4.37a1.81,1.81,0,0,1,1.8,1.8v9.27Z" transform="translate(-472.61 -1957.56)"/><path class="cls-1" d="M637.45,1988.42l-1.91,1.91h-2.6l-6.67,8.82v3.8h2.93v9.45l1.91,2-1.91,1.91H617.35v-13.33l1.91-1.91,1.09,0.32V1999l-7.17-8.64H611v-12.66l1.91-1.91,1.27,1.91H622v9.68l1.91,1.08-1.91,1.91H617.8l5.37,6h0.91l4.71-6h-4.25v-12.66l1.91-1.91,0.89,1.91h8.21v10.27Z" transform="translate(-472.61 -1957.56)"/><path class="cls-1" d="M542.93,2020.34c1.12,1.68.89,4.25-1.78,6-11,7.87-26.28,10.16-39.62,6.94q-2.25-.54-4.43-1.3c-10-3.51-18.93-10.88-22.25-21.23a47.79,47.79,0,0,1-2.23-14c-0.07-7.31,1.56-14.67,5.28-20.69,5.21-8.42,14.17-13.72,23.63-16,13.34-3.23,28.66-.93,39.62,6.94,2.67,1.77,2.9,4.34,1.78,6s-3.56,2.48-6.23.71a41,41,0,0,0-31.68-5,33.11,33.11,0,0,0-14.84,8.26,25.67,25.67,0,0,0-6.68,10.4,33.82,33.82,0,0,0,0,18.63,25.67,25.67,0,0,0,6.68,10.4,33.11,33.11,0,0,0,14.84,8.26,41,41,0,0,0,31.68-5C539.36,2017.86,541.81,2018.66,542.93,2020.34Z" transform="translate(-472.61 -1957.56)"/><path class="cls-1" d="M528.12,1975.75l-1.91,1.91v12.66h2.58l4.61,26h4.91l1.91-1.91-1-1.4,3.74-13.72,3.91,17h4.27l1.91-1.91-0.85-1.73,6.53-22.31h3l1.91-1.91v-12.66H528.12Zm8.82,27.68-2.79-13.1h7Zm12.91-.19-3-12.91h6.62Z" transform="translate(-472.61 -1957.56)"/><path class="cls-1" d="M699.47,2052.44l-1.91,1.91h-5.1v-2.42a1.81,1.81,0,0,0-1.8-1.8h-4.37a1.81,1.81,0,0,0-1.8,1.8v9.27a1.81,1.81,0,0,0,1.8,1.8h4.37a1.81,1.81,0,0,0,1.8-1.8V2060l1.91-1.91,1.26,1.91h1.92v11.27a5.35,5.35,0,0,1-5.4,5.33h-7.37a5.35,5.35,0,0,1-5.41-5.33v-27.8a5.43,5.43,0,0,1,5.41-5.42h7.37a5.43,5.43,0,0,1,5.4,5.42v8.3Z" transform="translate(-472.61 -1957.56)"/><polygon class="cls-1" points="203.81 88.85 205.72 91.25 203.81 93.16 200.72 93.16 200.72 105.14 203.81 105.14 203.81 114.83 205.72 117.12 203.81 119.04 192.81 119.04 192.81 105.14 194.72 103.23 195.9 105.14 195.9 93.16 192.81 93.16 192.81 80.49 194.72 78.57 195.99 80.49 203.81 80.49 203.81 88.85"/><path class="cls-1" d="M654.42,2060.14v-9.42h-2.73V2038l1.91-1.91,1.22,1.91h7.88v8.73l1.91,2-1.91,1.91h-3.91v11.62h3v10.87l1.91,1.47-1.91,1.91h-7.09l-11-25.44v11.18h3.09v10.38l1.91,2-1.91,1.91h-9.91v-14.26l1.91-1.91,0.54,0.16v-9.86h-2.64V2038l1.91-1.91,1.54,1.91H646L651,2051Z" transform="translate(-472.61 -1957.56)"/><path class="cls-1" d="M633.9,2043.46v27.8a5.35,5.35,0,0,1-5.41,5.33h-7.37a5.35,5.35,0,0,1-5.41-5.33v-27.8a5.43,5.43,0,0,1,5.41-5.42h7.37A5.43,5.43,0,0,1,633.9,2043.46Zm-5.1,17.74v-9.27a1.81,1.81,0,0,0-1.8-1.8h-4.37a1.81,1.81,0,0,0-1.8,1.8v9.27a1.81,1.81,0,0,0,1.8,1.8H627A1.81,1.81,0,0,0,628.8,2061.2Z" transform="translate(-472.61 -1957.56)"/><path class="cls-1" d="M590.39,2074.68l-1.91,1.91h-11v-14.26l1.91-1.91,0.36,0.09v-4.25h-8v6.07H575v11.26l1.91,1.09-1.91,1.91H564v-14.26l1.91-1.91a2.2,2.2,0,0,1,.82.33v-10H564V2038l1.91-1.91h23.92v12.67l-1.91,1.91h-3.18v11.62h3.73v11.42Zm-10.64-21.6v-2.37h-8v2.37h8Z" transform="translate(-472.61 -1957.56)"/><path class="cls-1" d="M602,2027.26c2.67,1.77,2.9,4.34,1.78,6s-3.56,2.48-6.23.71a41,41,0,0,0-31.68-5,33.11,33.11,0,0,0-14.84,8.26,25.67,25.67,0,0,0-6.68,10.4,33.81,33.81,0,0,0,0,18.63,25.67,25.67,0,0,0,6.68,10.4,33.11,33.11,0,0,0,14.84,8.26,41,41,0,0,0,31.68-5c2.67-1.77,5.12-1,6.23.71s0.89,4.25-1.78,6c-11,7.87-26.28,10.16-39.62,6.94q-2.25-.54-4.43-1.31c-10-3.5-18.93-10.88-22.25-21.23a47.88,47.88,0,0,1-2.23-14c-0.07-7.31,1.56-14.67,5.28-20.69,5.2-8.42,14.16-13.72,23.63-16C575.72,2017.09,591,2019.39,602,2027.26Z" transform="translate(-472.61 -1957.56)"/><path class="cls-2" d="M525.25,1981.16V2009a5.42,5.42,0,0,1-5.41,5.4h-7.37a5.42,5.42,0,0,1-5.4-5.4v-27.8a5.42,5.42,0,0,1,5.4-5.41h7.37A5.43,5.43,0,0,1,525.25,1981.16Zm-5.1,17.74v-9.27a1.81,1.81,0,0,0-1.8-1.8H514a1.81,1.81,0,0,0-1.8,1.8v9.27a1.81,1.81,0,0,0,1.8,1.8h4.37A1.81,1.81,0,0,0,520.15,1998.9Z" transform="translate(-472.61 -1957.56)"/><polygon class="cls-3" points="91.07 18.2 91.07 30.86 88.02 30.86 80.43 56.81 76.16 56.81 72.25 39.77 67.61 56.81 62.7 56.81 58.09 30.86 55.51 30.86 55.51 18.2 66.52 18.2 66.52 30.86 63.45 30.86 66.25 43.96 70.42 30.86 67.79 30.86 67.79 18.2 78.79 18.2 78.79 30.86 76.18 30.86 79.16 43.77 82.8 30.86 80.07 30.86 80.07 18.2 91.07 18.2"/><path class="cls-4" d="M589,1998.52v11.26a4.56,4.56,0,0,1-4.38,4.59H568.18v-13.58h3v-12.28h-4.64v-12.75h14.55A7.23,7.23,0,0,1,588,1983v6.39c0,2.5-1.25,4.19-4,4.64l0.73,0.09C587,1994.51,589,1996.1,589,1998.52Zm-6.37,6.35v-0.65a3.13,3.13,0,0,0-3.12-3.12H576v5.14h5.32A1.37,1.37,0,0,0,582.66,2004.87Zm-1.42-13.47v-0.65a2.24,2.24,0,0,0-2.24-2.24h-3.13v4.19H580A1.29,1.29,0,0,0,581.24,1991.4Z" transform="translate(-472.61 -1957.56)"/><path class="cls-5" d="M610.11,1981.16V2009a5.42,5.42,0,0,1-5.41,5.4h-7.37a5.42,5.42,0,0,1-5.4-5.4v-27.8a5.42,5.42,0,0,1,5.4-5.41h7.37A5.43,5.43,0,0,1,610.11,1981.16ZM605,1998.9v-9.27a1.81,1.81,0,0,0-1.8-1.8h-4.37a1.81,1.81,0,0,0-1.8,1.8v9.27a1.81,1.81,0,0,0,1.8,1.8h4.37A1.81,1.81,0,0,0,605,1998.9Z" transform="translate(-472.61 -1957.56)"/><polygon class="cls-6" points="164.84 18.2 164.84 30.86 162.23 30.86 155.56 39.68 155.56 43.48 158.49 43.48 158.49 56.81 146.65 56.81 146.65 43.48 149.65 43.48 149.65 39.5 142.48 30.86 140.28 30.86 140.28 18.2 151.28 18.2 151.28 30.86 147.1 30.86 152.47 36.86 153.38 36.86 158.08 30.86 153.83 30.86 153.83 18.2 164.84 18.2"/><path class="cls-7" d="M473.24,1995.68a47.84,47.84,0,0,0,2.23,14c3.31,10.35,12.23,17.72,22.25,21.23q2.18,0.76,4.43,1.31c13.34,3.23,28.66.93,39.62-6.94,2.67-1.77,2.9-4.34,1.78-6s-3.56-2.48-6.23-.71a41,41,0,0,1-31.68,5,33.11,33.11,0,0,1-14.84-8.26,25.67,25.67,0,0,1-6.68-10.4,33.81,33.81,0,0,1,0-18.63,25.67,25.67,0,0,1,6.68-10.4,33.11,33.11,0,0,1,14.84-8.26,41,41,0,0,1,31.68,5c2.67,1.77,5.12,1,6.23-.71s0.89-4.25-1.78-6c-11-7.87-26.28-10.16-39.62-6.94-9.47,2.29-18.43,7.6-23.63,16C474.8,1981,473.18,1988.37,473.24,1995.68Z" transform="translate(-472.61 -1957.56)"/><path class="cls-8" d="M635.81,2041.55v27.8a5.35,5.35,0,0,1-5.41,5.33H623a5.35,5.35,0,0,1-5.41-5.33v-27.8a5.43,5.43,0,0,1,5.41-5.42h7.37A5.43,5.43,0,0,1,635.81,2041.55Zm-5.1,17.74V2050a1.81,1.81,0,0,0-1.8-1.8h-4.37a1.81,1.81,0,0,0-1.8,1.8v9.27a1.81,1.81,0,0,0,1.8,1.8h4.37A1.81,1.81,0,0,0,630.71,2059.29Z" transform="translate(-472.61 -1957.56)"/><polygon class="cls-9" points="205.73 103.23 205.73 117.12 194.72 117.12 194.72 103.23 197.81 103.23 197.81 91.25 194.72 91.25 194.72 78.57 205.73 78.57 205.73 91.25 202.63 91.25 202.63 103.23 205.73 103.23"/><path class="cls-10" d="M614.86,2057.45v13.72a3.55,3.55,0,0,1-3.74,3.51H608.3a3.86,3.86,0,0,1-4-3.82v-11.51h0a2.87,2.87,0,0,0-2.86-2.86H599.8v4h3v14.23h-9.91v-14.26h2.82V2048.8h-3.09v-12.67h12a7.08,7.08,0,0,1,7.14,7.08v9.46a4.5,4.5,0,0,1-4,4.47,2.91,2.91,0,0,1,.36.3,2.81,2.81,0,0,1,.79,2l0,0.32a1.39,1.39,0,0,0,1.39,1.39h0.09a1.39,1.39,0,0,0,1.39-1.39v-2.29h3Zm-9.55-5.83v-1a2.08,2.08,0,0,0-2.07-2.07H600.3v5.16h2.93A2.07,2.07,0,0,0,605.31,2051.61Z" transform="translate(-472.61 -1957.56)"/><polygon class="cls-11" points="117.78 102.87 117.78 117.12 106.77 117.12 106.77 102.87 109.05 102.87 109.05 96.8 101.04 96.8 101.04 102.87 104.31 102.87 104.31 117.12 93.31 117.12 93.31 102.87 96.04 102.87 96.04 91.25 93.31 91.25 93.31 78.57 104.31 78.57 104.31 91.25 101.04 91.25 101.04 93.61 109.05 93.61 109.05 91.25 106.22 91.25 106.22 78.57 117.23 78.57 117.23 91.25 114.05 91.25 114.05 102.87 117.78 102.87"/><path class="cls-12" d="M699.47,2058.08v11.27a5.35,5.35,0,0,1-5.4,5.33H686.7a5.35,5.35,0,0,1-5.41-5.33v-27.8a5.43,5.43,0,0,1,5.41-5.42h7.37a5.43,5.43,0,0,1,5.4,5.42v10.89h-5.1V2050a1.81,1.81,0,0,0-1.8-1.8H688.2a1.81,1.81,0,0,0-1.8,1.8v9.27a1.81,1.81,0,0,0,1.8,1.8h4.37a1.81,1.81,0,0,0,1.8-1.8v-1.21h5.1Z" transform="translate(-472.61 -1957.56)"/><polygon class="cls-13" points="191.99 78.57 191.99 91.25 188.08 91.25 188.08 102.87 191.08 102.87 191.08 117.12 183.99 117.12 172.98 91.68 172.98 102.87 176.07 102.87 176.07 117.12 166.16 117.12 166.16 102.87 168.62 102.87 168.62 91.25 165.98 91.25 165.98 78.57 175.35 78.57 180.25 91.52 183.72 100.67 183.72 91.25 180.99 91.25 180.99 78.57 191.99 78.57"/><path class="cls-14" d="M534.1,2056a47.84,47.84,0,0,0,2.23,14c3.31,10.35,12.23,17.72,22.25,21.23q2.18,0.76,4.43,1.31c13.34,3.23,28.66.93,39.62-6.94,2.67-1.77,2.9-4.34,1.78-6s-3.56-2.48-6.23-.71a41,41,0,0,1-31.68,5,33.11,33.11,0,0,1-14.84-8.26,25.67,25.67,0,0,1-6.68-10.4,33.81,33.81,0,0,1,0-18.63,25.67,25.67,0,0,1,6.68-10.4,33.11,33.11,0,0,1,14.84-8.26,41,41,0,0,1,31.68,5c2.67,1.77,5.12,1,6.23-.71s0.89-4.25-1.78-6c-11-7.87-26.28-10.16-39.62-6.94-9.47,2.29-18.43,7.6-23.63,16C535.66,2041.3,534,2048.66,534.1,2056Z" transform="translate(-472.61 -1957.56)"/><polygon class="cls-15" points="43.14 22.29 42.01 24.22 43.14 26.15 44.28 24.22 43.14 22.29"/><polygon class="cls-15" points="60.56 22.29 59.42 24.22 60.56 26.15 61.69 24.22 60.56 22.29"/><polygon class="cls-15" points="73.06 22.29 71.93 24.22 73.06 26.15 74.2 24.22 73.06 22.29"/><polygon class="cls-15" points="84.93 22.29 83.8 24.22 84.93 26.15 86.07 24.22 84.93 22.29"/><polygon class="cls-15" points="104.81 22.29 103.67 24.22 104.81 26.15 105.94 24.22 104.81 22.29"/><polygon class="cls-15" points="128.46 22.29 127.32 24.22 128.46 26.15 129.59 24.22 128.46 22.29"/><polygon class="cls-15" points="145.74 22.29 144.6 24.22 145.74 26.15 146.87 24.22 145.74 22.29"/><polygon class="cls-15" points="159.43 22.29 158.29 24.22 159.43 26.15 160.56 24.22 159.43 22.29"/><rect class="cls-15" x="515.57" y="1960.68" width="4" height="2.68" transform="translate(-330.2 -1989.69) rotate(4.12)"/><rect class="cls-15" x="503.02" y="1961.77" width="4" height="2.68" transform="translate(-897.76 -1795.46) rotate(-12.89)"/><rect class="cls-15" x="492.43" y="1965.68" width="4" height="2.68" transform="translate(-1389.88 -1446.81) rotate(-30)"/><rect class="cls-15" x="483.92" y="1972.23" width="4" height="2.68" transform="translate(-1790.72 -920.25) rotate(-48.74)"/><rect class="cls-15" x="515.57" y="2027.91" width="4" height="2.68" transform="translate(-617.18 -1915.09) rotate(-4.12)"/><rect class="cls-15" x="503.02" y="2026.82" width="4" height="2.68" transform="translate(-7.51 -2019.11) rotate(12.89)"/><rect class="cls-15" x="492.43" y="2022.91" width="4" height="2.68" transform="translate(605.75 -1933.57) rotate(30)"/><rect class="cls-15" x="483.92" y="2016.36" width="4" height="2.68" transform="translate(1209.59 -1635.78) rotate(48.74)"/><polygon class="cls-15" points="153.7 82.68 152.57 84.61 153.7 86.54 154.84 84.61 153.7 82.68"/><polygon class="cls-15" points="200.63 82.68 199.5 84.61 200.63 86.54 201.77 84.61 200.63 82.68"/><polygon class="cls-15" points="129.24 82.68 128.1 84.61 129.24 86.54 130.37 84.61 129.24 82.68"/><polygon class="cls-15" points="111.77 82.68 110.64 84.61 111.77 86.54 112.91 84.61 111.77 82.68"/><polygon class="cls-15" points="98.95 82.68 97.82 84.61 98.95 86.54 100.08 84.61 98.95 82.68"/><polygon class="cls-15" points="217.37 82.68 216.23 84.61 217.37 86.54 218.5 84.61 217.37 82.68"/><polygon class="cls-15" points="171.44 82.68 170.3 84.61 171.44 86.54 172.57 84.61 171.44 82.68"/><polygon class="cls-15" points="186.35 82.68 185.22 84.61 186.35 86.54 187.49 84.61 186.35 82.68"/><rect class="cls-15" x="576.43" y="2020.97" width="4" height="2.68" transform="translate(-325.71 -1993.91) rotate(4.12)"/><rect class="cls-15" x="563.88" y="2022.06" width="4" height="2.68" transform="translate(-909.67 -1780.36) rotate(-12.89)"/><rect class="cls-15" x="553.28" y="2025.97" width="4" height="2.68" transform="translate(-1411.88 -1408.31) rotate(-30)"/><rect class="cls-15" x="544.78" y="2032.52" width="4" height="2.68" transform="translate(-1815.32 -853.97) rotate(-48.74)"/><rect class="cls-15" x="576.43" y="2088.2" width="4" height="2.68" transform="translate(-621.35 -1910.56) rotate(-4.12)"/><rect class="cls-15" x="563.88" y="2087.11" width="4" height="2.68" transform="translate(7.47 -2031.16) rotate(12.89)"/><rect class="cls-15" x="553.28" y="2083.2" width="4" height="2.68" transform="translate(644.05 -1955.92) rotate(30)"/><rect class="cls-15" x="544.78" y="2076.65" width="4" height="2.68" transform="translate(1275.64 -1660.99) rotate(48.74)"/><path class="cls-16" d="M634.57,2010.27h-1.09v-0.77h3.11v0.77h-1.1v3.27h-0.92v-3.27Z" transform="translate(-472.61 -1957.56)"/><path class="cls-16" d="M640.47,2012c0-.49,0-1.07,0-1.66h0c-0.13.52-.29,1.09-0.45,1.56l-0.49,1.58h-0.71l-0.43-1.56c-0.13-.47-0.27-1-0.37-1.58h0c0,0.55,0,1.17-.07,1.67l-0.07,1.54H637l0.26-4h1.22l0.4,1.35c0.13,0.47.25,1,.34,1.45h0c0.11-.47.25-1,0.38-1.45l0.43-1.34h1.19l0.22,4h-0.89Z" transform="translate(-472.61 -1957.56)"/><path class="cls-16" d="M631.11,2031.77c-2,0-4,0-6,0a1,1,0,0,1-1.2-.73,4.57,4.57,0,0,0-.32-0.63,8,8,0,0,0,1.7-.27,1.6,1.6,0,0,0,1.07-1.39c0-1.74,0-3.48,0-5.22a2.1,2.1,0,0,0-2.09-2h-0.47a1.55,1.55,0,0,1,.07-0.4c0.14-.25.31-0.49,0.48-0.76,3.53,0,7,0,10.56,0a2.93,2.93,0,0,1,2.41,1.7,2.54,2.54,0,0,1,.19,2.62,4.19,4.19,0,0,1-.87,1,6.62,6.62,0,0,1-.78.56,5.31,5.31,0,0,1,1.43,3,1.13,1.13,0,0,0,1.1,1.11,7.8,7.8,0,0,1,.81.26,1.25,1.25,0,0,1-1.45,1.13c-0.66-.09-1.38.27-2-0.23-0.72.2-1-.38-1.5-0.82a5.67,5.67,0,0,0-.35-2.67,9.94,9.94,0,0,0-.79-1.37h-4a7.48,7.48,0,0,0,.24,2.69,2.81,2.81,0,0,0,.29.69,1,1,0,0,0,1,.56,4.53,4.53,0,0,1,.9,0C631.9,2031.22,631.39,2031.44,631.11,2031.77Zm-1.75-6.51c1,0,1.84,0,2.72,0a3.21,3.21,0,0,0,1.57-.41,1.39,1.39,0,0,0,.81-1.52,1.54,1.54,0,0,0-1.1-1.34,6.3,6.3,0,0,0-2.34-.21,0.72,0.72,0,0,0-.29.13,2.2,2.2,0,0,0-1.37,2.07C629.36,2024.37,629.36,2024.76,629.36,2025.26Z" transform="translate(-472.61 -1957.56)"/><path class="cls-16" d="M608.2,2030.16a2,2,0,0,0,1.41.2,0.92,0.92,0,0,0,.65-0.34,2.59,2.59,0,0,0,.47-1.19q0.07-2.67,0-5.34a2.1,2.1,0,0,0-.47-1.29,3.78,3.78,0,0,0-1.31-.65,1.1,1.1,0,0,0-.42,0c-0.38-.51.27-0.75,0.13-1.16,3.16,0,6.22,0,9.27,0a3,3,0,0,1,3,2.16,2.37,2.37,0,0,1-1.07,2.71c-0.13.07-.24,0.16-0.37,0.22a2.46,2.46,0,0,1-.45.08,14.56,14.56,0,0,0,1.58,1.36,1.47,1.47,0,0,1,.57,1,4,4,0,0,1-.54,2.89,2.2,2.2,0,0,1-1.92,1h-9.18a1,1,0,0,1-1.12-.84c0-.14-0.13-0.26-0.18-0.39A2.16,2.16,0,0,1,608.2,2030.16Zm5.35-3.73c0,0.72,0,1.33,0,1.95a2.13,2.13,0,0,0,2.21,2.24,3.29,3.29,0,0,0,.81,0,2.22,2.22,0,0,0,1.63-.91,1.75,1.75,0,0,0-.25-2.23,2.78,2.78,0,0,0-2.34-1C614.95,2026.46,614.29,2026.43,613.55,2026.43Zm4.65-2.44c0-.21,0-0.47,0-0.73a1.55,1.55,0,0,0-1.19-1.5,4.11,4.11,0,0,0-1.77-.2,1.72,1.72,0,0,0-1.68,1.7c0,0.49,0,1,0,1.54,0.82,0,1.59,0,2.35,0A2.7,2.7,0,0,0,618.2,2024Z" transform="translate(-472.61 -1957.56)"/><path class="cls-16" d="M676.28,2021.43l0.29-.62a0.68,0.68,0,0,1,.71-0.43c2.63,0,5.26,0,7.89,0a2.67,2.67,0,0,1,1.87.79,5.46,5.46,0,0,1,1.67,2.56,8.71,8.71,0,0,1,.2,4.26,6.82,6.82,0,0,1-.86,2.21,3,3,0,0,1-2.84,1.54c-2.44,0-4.88,0-7.31,0h-0.46a1,1,0,0,1-1-.69l-0.33-.64c0.87-.22,1.9-0.17,2.5-1.15v-6.65C678.21,2021.65,677.14,2021.77,676.28,2021.43Zm5.4,4.88c0,0.54,0,1.08,0,1.62a4,4,0,0,0,.22,1.41,1.86,1.86,0,0,0,2.63,1.11,2.46,2.46,0,0,0,1.52-2.24,14.33,14.33,0,0,0-.16-4.42c-0.39-1.46-1.09-2.1-2.57-2a1.51,1.51,0,0,0-1.39,1,9.72,9.72,0,0,0-.24,1.64C681.65,2025.07,681.68,2025.69,681.68,2026.31Z" transform="translate(-472.61 -1957.56)"/><path class="cls-16" d="M670.75,2031.52H668c-2-2.85-4.07-5.63-6.07-8.46l-0.27.11v1.12c0,1.2,0,2.4,0,3.6a4.4,4.4,0,0,0,.33,1.5,1.35,1.35,0,0,0,1.41,1h0.91l-0.37,1.16h-5.09c-0.5,0-.58-0.12-0.68-0.81a4.06,4.06,0,0,0,1.76-.81,2.07,2.07,0,0,0,.58-1.4c0-1.55,0-3.1,0-4.65a2.21,2.21,0,0,0-2.29-2.37,3.45,3.45,0,0,0,.2-0.45c0.18-.65.19-0.67,0.81-0.68h4.06l6.3,8.35c0-1.84.06-3.42,0-5a2.69,2.69,0,0,0-.63-1.59,2.1,2.1,0,0,0-1.59-.66,0.43,0.43,0,0,1-.11-0.13,1.48,1.48,0,0,0,.26-0.44,0.67,0.67,0,0,1,.83-0.55c1.63,0,3.25,0,4.92,0l0.41,1.1a5.36,5.36,0,0,0-.73.07,2.54,2.54,0,0,0-2.16,2.67C670.75,2026.62,670.75,2029,670.75,2031.52Z" transform="translate(-472.61 -1957.56)"/><path class="cls-16" d="M644.65,2021.54a6.33,6.33,0,0,1,.15-0.67,4.26,4.26,0,0,1,.25-0.49c2.13,0,4.26,0,6.38,0a1.06,1.06,0,0,1,1.35.9,0.84,0.84,0,0,1-.93.27c-0.77,0-1,.2-0.85,1a11,11,0,0,0,.51,1.76,23.56,23.56,0,0,0,1.79,3.91,8.31,8.31,0,0,0,1.77,1.92,3.09,3.09,0,0,0,1.28.34l-0.69,1.33h-5.91c-0.82,0-.82,0-1.12-0.85,0-.13-0.13-0.25-0.19-0.39a0.49,0.49,0,0,1,.08-0.16c0.38,0,.8,0,1.22,0a2.42,2.42,0,0,0,.83-0.23c0.51-.25.53-0.39,0.26-1a1.48,1.48,0,0,1-.23-0.48c0-.78-0.46-0.89-1.13-0.87-1.24,0-2.48,0-3.73,0a3.15,3.15,0,0,0-.78,1.9,0.59,0.59,0,0,0,.7.66c0.43,0,.85,0,1.28,0a0.35,0.35,0,0,1,.06.17c-0.41,1-.41,1-1.52,1H642.2c-0.74,0-.74,0-1-0.84a1.2,1.2,0,0,0-.23-0.28,4,4,0,0,0,3-2.15,11.08,11.08,0,0,0,1.88-4.45,11.33,11.33,0,0,0,.44-1.32c0.11-.76-0.08-0.93-0.86-1h-0.81Zm4.94,4.92L648,2022.3l-1.69,4.18C647.44,2027.09,648.52,2027.49,649.59,2026.46Z" transform="translate(-472.61 -1957.56)"/></svg>