<svg id="Layer_1" data-name="Layer 1" xmlns="http://www.w3.org/2000/svg" viewBox="0 0 299.04 108"><defs><style>.cls-1{fill:#fff;}</style></defs><title>Artboard 1</title><path class="cls-1" d="M.24,24.72V.24H48.72c0,2.12,0,4.24,0,6.36,0,1.18.59,1.73,1.79,1.74H61.12v17.8h-1.4c-2.71,0-5.43,0-8.15,0-2,0-2.83,1.31-2.17,3,.48,1.23.76,2.54,1.13,3.82l-.27.08-.72-2.08-.3,0c.16,1.5-.4,3,.28,4.57.24-.11.37-.13.44-.21a5.22,5.22,0,0,0,.34-.48c.53.71,3.09,1,5.18.38l-4.62-8.41H61.14v8.85h-4c-.4,0-1-.15-1.17.06-1.17,1.15-2.54.52-3.84.58a2.86,2.86,0,0,0-1.06.11,3.44,3.44,0,0,0-.81.65l-.61-.68-.29.12v5.86h.21L50,39.61a5.28,5.28,0,0,1,0,1.68c-.13,1.28.05,1.51,1.29,1.52,1,0,2.08,0,3.12,0a4.19,4.19,0,0,1,1,.21,6.36,6.36,0,0,0,1.46.47c1.39.07,2.78,0,4.2,0v8.52c-1.73,0-3.4,0-5.06,0-.36,0-.9-.07-1,.12-.63.91-1.51.52-2.31.57-.53,0-1.06,0-1.69,0,.31,2.44.56,4.66.9,6.86,0,.24.49.51.8.58A5,5,0,0,0,53.81,60c1.5-.08,1.69-.31,1.55-1.85s-.3-2.94-.34-4.42c0-.35.38-1,.61-1,1.83-.08,3.66,0,5.51,0V65.41h-6.3c.1-1.24.25-2.38.25-3.53,0-.39-.29-1.07-.56-1.12a11.3,11.3,0,0,0-2.33-.06v4.54c.87.22,1.65.47,2.44.6a20.3,20.3,0,0,0,2.58.25c1.3,0,2.61,0,3.89,0V78.4H51.35l3.21-12.32c-1.11.13-2.3-.09-2.88.42-.78.67-1.38,1-2.31.66-.07.16-.13.23-.13.3,0,3.2,0,6.4-.09,9.59,0,1.06.3,1.49,1.34,1.38a2.36,2.36,0,0,1,.6.09l-.16.74-1.7-.12c0,.57-.12,1-.12,1.43,0,3.24-.07,6.47-.09,9.71,0,2,0,3.91,0,5.87,0,.37.33,1,.6,1.06A17.66,17.66,0,0,0,57.34,97s0-.14.06-.27a2.58,2.58,0,0,0-.37-.22c-1.75-.83-3.52-1.61-5.24-2.5a2.87,2.87,0,0,1-1.47-2.45,38.63,38.63,0,0,1,.58-12.37H61.14V98.38c-.52,0-1,.07-1.46.07H50.56c-1.35,0-1.84.42-2.12,1.71-.07.29-.37.53-.53.81-.38.65-1.14,1.4-1,1.94a31.48,31.48,0,0,0,1.62,4.4l.38,0A35.58,35.58,0,0,1,50.41,104c.71-1.21-.47-2-.59-3,0-.24-.93-.69-.54-1.22a2,2,0,0,1,1.44-.51c3.23,0,6.47,0,9.71,0,.42,0,.84,0,1.26-.07V7.66H60.3c-3.16,0-6.32,0-9.48,0-.93,0-1.45-.32-1.43-1.31,0-2,0-4.07,0-6.11H299.25v108h-240l1-.64a3.38,3.38,0,0,0,1.18-4.14,3.53,3.53,0,0,0-4.08-2,3.36,3.36,0,0,0-2.65,3.25c-.07,1.8,1.1,2.69,2.43,3.49H.24V32.4l3.61,2.25-1.35.23a22.36,22.36,0,0,1,0,3.38c-.37,2.39.8,3.54,2.94,4,.7.17.82.62.81,1.25,0,1.68,0,3.36,0,5,0,.83-.29,1.14-1.12,1.11-1.19,0-2.38,0-3.56,0a2.31,2.31,0,0,0-.12.44c0,4.12-.05,8.24-.05,12.36a1.14,1.14,0,0,0,.34.84,21.13,21.13,0,0,0,3.26,2c.66.29.95.54.93,1.26,0,1.8,0,3.6,0,5.4v5.78l-2.15.19V98.65a8.66,8.66,0,0,0,.91.08c6.4,0,12.8,0,19.2,0a10.94,10.94,0,0,0,3.42-1c.25-.08.48-.61.48-.93,0-6.16.08-12.32,0-18.48,0-.9.21-1.35.93-1.64a1.6,1.6,0,0,0,1-1.79c0-2.84,0-5.68,0-8.52V63.19c-1.33,0-2.53.07-3.7,0-.36,0-1-.56-1-.87C25,59,25,55.8,25,52.56c0-.77.41-1.21,1.21-1.09a5.13,5.13,0,0,0,4.1-1.28,2.16,2.16,0,0,0,.79-1.4c.09-2,0-3.92.06-5.88,0-1-.37-1.39-1.32-1.24-1.24.19-1.6-.33-1.53-1.54.1-1.7,0-3.41,0-5.23H25.16v-9L27,25.7V7.76H2.53V23.82C1.73,24.38.61,23.5.24,24.72Zm45.9,53.56H36.77V65.94c2.61,0,5.16.07,7.71,0a22.9,22.9,0,0,0,3.55-.6.54.54,0,0,0,.36-.39c0-1,0-1.93,0-2.94-2.1.44-3,1.57-2.88,3.21H36.79V52.55c2,0,3.9,0,5.8,0,.19,0,.54.54.51.8-.11,1-.39,2-.53,3.06a8.31,8.31,0,0,0,1.68,6.66c.31.37.58.76,1.14.22a9.45,9.45,0,0,1,2.1-1.64c.72-.4,1.24-.84,1-1.66-.76-2.33-1.57-4.66-2.43-7-.09-.24-.64-.36-1-.44s-1-.08-1.53-.2a8.94,8.94,0,0,0-1.63-.55c-1.71-.08-3.41,0-5.1,0V43.3c1.95,0,3.79,0,5.62,0,.89,0,1.88-.29,2-1.23a28,28,0,0,0-.21-4.66c-.08-.91-.66-1.28-1.66-1,0,.52,0,1,.09,1.46.2,1.3.48,2.59.63,3.9,0,.3-.3.92-.48.92-2,.07-4,0-5.92,0V36c.62,0,1.14,0,1.65,0,3.08.18,6.07-1,9.17-.57.22,0,.72-.57.76-.9a23.53,23.53,0,0,0,.06-3.36c0-1-.22-2-.34-3.09a2.77,2.77,0,0,0,.27-.93c0-.2-.38-.51-.61-.54-2.23-.19-4.47-.38-6.7-.49-1.42-.07-2.85,0-4.29,0V8.26h4c1.32,0,2.64,0,4,0a17.66,17.66,0,0,0,3.71-.13l0-.42H36.05V99h12.1v-.4H36.78V79h8.88c-1.28,2.7-.69,5.38-.32,8.07.26,1.85.63,3.7.71,5.56a10.16,10.16,0,0,1-.65,3c-.25.92.06,1.62,1,1.69.63,0,1.72-.26,1.86-.66A5.26,5.26,0,0,0,48,94.24c-.13-.76-.36-1.51-.54-2.26l.23,0,.4,1.18a31.92,31.92,0,0,0,.21-4.34c0-2.79,0-5.59.1-8.38,0-.9-.19-1.39-1.18-1.3a1.65,1.65,0,0,1-.94-.12c-.15-.09-.15-.47-.22-.72l1.43.08c.69,0,.9-.29.9-.94,0-3.47,0-6.94,0-10.41a1.22,1.22,0,0,0-.79-.88c-1.13-.25-1.48.09-1.5,1.32,0,2.88-.06,5.75-.08,8.62C46.06,76.79,46.11,77.54,46.14,78.28ZM79,18.7v40h6.27V44.87c2.8,0,5.47,0,8.15,0a1.62,1.62,0,0,1,1.62.89c2.53,4.07,5.1,8.12,7.67,12.16.22.35.57.86.87.87,2.25.08,4.49,0,6.93,0L101,43.68c5.82-3.28,8.07-7.14,7.7-13.1A12.77,12.77,0,0,0,96.1,18.7H79ZM128,59.38a14.91,14.91,0,0,0,15.21-15.29,14.87,14.87,0,0,0-15.16-15.31c-8.89,0-15.29,6.45-15.28,15.39A14.77,14.77,0,0,0,128,59.38Zm163.39,15V72.59H77.17v1.78ZM173.12,58.76V37.51h7.38V32.69h-7.56a59.18,59.18,0,0,1,.47-6.69c.51-2.93,2.66-4.21,5.58-3.59.92.2,1.81.56,2.83.89.44-1.48.88-2.95,1.33-4.48a12.56,12.56,0,0,0-8.92-1.61c-3.93.76-6.7,4.14-7.17,8.71-.23,2.21-.24,4.44-.36,6.79H163v4.85h3.89v21.2ZM148.57,17.58V43c0,3.24,0,6.48,0,9.71s1.57,5.52,4.25,6.23c3.15.84,6.15.1,9.19-1-.32-1.71-.61-3.33-.92-5l-.95.28c-3.65,1.07-5.33-.19-5.33-4V17.58Zm128,34.12H278c3.28,0,6.55,0,9.83,0,.79,0,1.05-.27,1-1.05a7.75,7.75,0,0,0-1.89-5,7.6,7.6,0,0,0-10.58-.53A8,8,0,0,0,276,56.3a7.73,7.73,0,0,0,10.62.23,12.56,12.56,0,0,0,1.25-1.63l-.17-.41c-.75,0-1.84-.22-2.19.18a4.87,4.87,0,0,1-5.36,1.72C278,55.74,276.84,54.13,276.52,51.7ZM50.27,25.82c0-1.77.4-2.07,2.11-1.9.55,0,1.11.06,1.67.1a1.66,1.66,0,0,0,1.82-1.4c.39-1.52,1.24-3,.38-4.68-.2-.38,0-1,.09-1.52.15-2,.53-4.19-1.64-5.44A16.4,16.4,0,0,0,51.25,9.7c-1.7-.51-1.87-.36-1.9,1.47-.06,2.75-.11,5.5-.13,8.24,0,1.88,0,3.75,0,5.63C49.21,25.73,49.42,26.13,50.27,25.82ZM48.5,9.32c-2.8-.43-4,0-5.75,2-2.61,2.92-2.71,7.19.11,9.64,1.29,1.12,2,2.48,1.14,4.25a2.7,2.7,0,0,0-.07.77c1.24,0,2.43,0,3.62,0,.26,0,.72-.27.73-.43.07-1.62.75-3.29-.49-4.81a2.7,2.7,0,0,1,.25-4,1.48,1.48,0,0,0,.44-.91C48.52,13.68,48.5,11.53,48.5,9.32ZM248,43.5c0,3.72-.2,7.36.06,11,.2,3,2.47,4.44,5.43,4a7.22,7.22,0,0,0,4.46-2.35c.19-.21.41-.39.69-.65.27,2.69.79,3.16,3,2.65,0-.63.21-1.59-.14-1.9-.85-.74-.6-1.59-.61-2.42,0-2.6,0-5.2,0-7.8V43.53h-2.57v7.85a4.79,4.79,0,0,1-4,4.87A2.84,2.84,0,0,1,250.58,54a11.5,11.5,0,0,1-.26-2.49c0-2.66,0-5.33,0-8Zm-54,14.71c0-2.62.08-5.09,0-7.57a4.73,4.73,0,0,1,2.33-4.3c2.79-1.9,5.13-.8,5.46,2.55,0,.4,0,.8,0,1.2,0,2.28,0,4.55,0,6.83,0,.42.05.84.08,1.26h2.43c0-2.92,0-5.75,0-8.59A15.26,15.26,0,0,0,204,46.5a3.85,3.85,0,0,0-4.2-3.29,7.16,7.16,0,0,0-5.24,2.26l-.82.89V43.55h-2.15V58.21Zm13.88-3.53-1.15,1.85A26.35,26.35,0,0,0,209.75,58a9.31,9.31,0,0,0,6.79-.06,4,4,0,0,0,2.57-4c0-1.83-1.16-2.7-2.67-3.27-.75-.28-1.52-.49-2.29-.71a21.06,21.06,0,0,1-3.08-.92,2.12,2.12,0,0,1-1.13-1.46,2.88,2.88,0,0,1,.9-1.9,3.2,3.2,0,0,1,1.78-.57,6.65,6.65,0,0,1,4.94,1.56l1.09-1.45a8.32,8.32,0,0,0-9-1.18,4.18,4.18,0,0,0-2.1,4.36c.16,1.66,1.41,2.22,2.73,2.64s2.85.78,4.27,1.19c1.59.47,2.24,1.15,2.16,2.17s-1,1.93-2.49,2.19a6.2,6.2,0,0,1-1,.07A9.08,9.08,0,0,1,207.82,54.68Zm38.11,3.1-.71-2.18a14,14,0,0,1-1.85.5c-1,.15-1.91-.39-1.93-1.32-.06-3.06,0-6.13,0-9.36h3.13v-2h-3.17V38.65h-2.56V43.4l-1.89.11v1.87l1.93.17V46.9c0,2.8,0,5.6,0,8.4,0,1.84,1,3,2.83,3.05A28.53,28.53,0,0,0,245.93,57.78Zm26.14-2.22-1.1.38c-1.84.54-2.7-.07-2.7-1.94s0-3.76,0-5.63V45.43h3.2v-2h-3.23v-4.8h-2.55V43.4l-1.88.1v1.87l1.89.18v9.26c0,2.57,1.34,3.84,3.9,3.57a24.09,24.09,0,0,0,3.13-.76ZM220.66,45.37l2,.19c0,3.14,0,6.17,0,9.21,0,2.72,1.33,3.94,4.06,3.59a23.67,23.67,0,0,0,2.86-.75c-.13-.5-.19-.81-.29-1.12s-.22-.56-.35-.87c-.61.17-1.13.37-1.67.47a1.6,1.6,0,0,1-2.11-1.53c-.08-3,0-6,0-9.14h3.21v-2h-3.26V38.64h-2.44v4.74l-2,.14Zm6.08,53.42a5.32,5.32,0,0,0,5.7,1.79,3.93,3.93,0,0,0,3.42-4.23q0-3.84,0-7.67c0-.34-.05-.68-.07-1h-1.52l-.11,1.38c-2.62-2-4.67-2-6.31-.29a5.2,5.2,0,0,0-.1,6.71c1.52,1.83,3.46,1.85,6.17,0,.14,1.35.12,2.63-1.22,3.34-1.84,1-3.46.35-4.93-1ZM187,58.21v-20h-2.4v20Zm37.48,34.66c.3-2.67-1.15-4.81-3.44-5.27a4.72,4.72,0,0,0-5.75,3.26,4.8,4.8,0,0,0,2.79,5.82c2.29.86,5.21-.14,5.77-2-.73-.36-1.34-.63-2.07.2a2.47,2.47,0,0,1-2.79.51,2.74,2.74,0,0,1-1.81-2.54ZM274,97a4.66,4.66,0,0,0,4.81-4.73,4.76,4.76,0,0,0-9.51-.09A4.64,4.64,0,0,0,274,97ZM83.47,97a4.61,4.61,0,0,0,4.7-4.81,4.73,4.73,0,1,0-9.45.07A4.58,4.58,0,0,0,83.47,97Zm171.16-.2a9.9,9.9,0,0,0,0-1.34c-.13-1-.35-1.89-.46-2.85-.07-.63,0-1.28,0-1.91a3.21,3.21,0,0,0-2.59-3.05,6.13,6.13,0,0,0-5.07,1.06c.21.38.4.74.59,1.11,1.5-.79,2.93-1.59,4.37-.51.55.41.7,1.35,1.14,2.29a17.64,17.64,0,0,0-2.53-.34,6.88,6.88,0,0,0-2.11.32,2.6,2.6,0,0,0-2,3,2.63,2.63,0,0,0,2.73,2.35,21.08,21.08,0,0,0,3.82-1C252.69,96.7,253.37,97.11,254.63,96.78ZM177,91.26a29.68,29.68,0,0,0-4.2.29,2.62,2.62,0,0,0-2.09,2.83,2.74,2.74,0,0,0,2.84,2.54,20,20,0,0,0,3.78-1c.15.91.93,1.16,2.3.83a13.71,13.71,0,0,1-.64-2.32c-.11-1.11,0-2.23,0-3.35a3.41,3.41,0,0,0-1.7-3.1c-1.48-.87-4.85-.56-5.93.86l.56.94C175.26,88.08,177.12,88.69,177,91.26Zm-46.26,4.15c0,.18,0,.61.13.7a12.51,12.51,0,0,0,1.71.76,7.4,7.4,0,0,0,.25-1.59c0-.55-.4-1.09-.41-1.64-.06-2,0-4,0-6h-1.88c0,1.66,0,3.26,0,4.85a2.71,2.71,0,0,1-2.78,2.8c-1.23,0-1.75-.77-1.76-2.59,0-1.67,0-3.34,0-5H124.1c0,2.16-.07,4.23,0,6.3.1,2.33,1.72,3.5,3.95,2.85A14.06,14.06,0,0,0,130.77,95.41Zm158.68,1.33c0-2.41.13-4.76,0-7.09a2.22,2.22,0,0,0-2.87-2.12,21.39,21.39,0,0,0-3.44,1.29L283,87.66h-1.52v9h1.79c0-1.69,0-3.28,0-4.87A3,3,0,0,1,286,89.16c1.14,0,1.7.78,1.75,2.52,0,.24,0,.48,0,.72v4.34Zm-127.71,0c0-.44.16-1,0-1.21-1-1.28-.46-2.75-.56-4.12s0-2.52,0-3.77h-1.81c0,.45-.06.84-.06,1.23,0,1.27,0,2.55,0,3.83a2.69,2.69,0,0,1-2.73,2.6c-1.24,0-1.75-.69-1.78-2.43,0-.76,0-1.52,0-2.28V87.69h-1.85c0,2.26-.09,4.46,0,6.64a2.52,2.52,0,0,0,3.15,2.59,16.74,16.74,0,0,0,3.47-1.38C159.72,96.8,160,97,161.74,96.77Zm43.48,0c0-2.32.1-4.52,0-6.7-.12-2-1.33-2.89-3.27-2.48a16.16,16.16,0,0,0-3.15,1.35l-.07-1.25h-1.55v9H199c0-1.64,0-3.19,0-4.75a2.89,2.89,0,0,1,2.73-2.8c1.15,0,1.67.73,1.74,2.52,0,.4,0,.8,0,1.2v3.86ZM234.17,58.2V43.52h-2.35V58.2ZM142,94.13a2.62,2.62,0,0,1-3.28,1A3.1,3.1,0,0,1,136.9,92a2.69,2.69,0,0,1,1.95-2.72,2.88,2.88,0,0,1,2.21.33c1,.89,1.65.5,2.5,0a4.5,4.5,0,0,0-5.44-2,4.81,4.81,0,0,0,.56,9.23,4.38,4.38,0,0,0,5-2.25Zm-34.38-5.51a5.65,5.65,0,0,0-5.49-.75,2.57,2.57,0,0,0-1.69,2.65c0,1.15.88,1.63,1.84,1.94a18.51,18.51,0,0,1,2.4.71c.54.26,1.29.8,1.31,1.25,0,.91-.83,1.24-1.63,1.13-1.23-.18-2.44-.51-3.77-.8l-.56,1a7,7,0,0,0,5.81,1,2.58,2.58,0,0,0,2.06-2.49c0-1.32-.8-1.93-1.9-2.29s-2-.53-3-.9a1.26,1.26,0,0,1-.72-.92,1.43,1.43,0,0,1,.71-1.08,3.76,3.76,0,0,1,1.86-.12,12.77,12.77,0,0,1,2,.73ZM95.48,84.41c-2.68-1.46-4.93-.17-5,2.8,0,.36,0,.72,0,1.08a.84.84,0,0,1-.12.32l-1,.19v1.28l1.22.24v6.43H92.4V90.24l2.24-.11V88.77l-2.17-.14c-.26-2.89.23-3.45,2.66-3ZM213.13,95c-.91.12-2,.77-2.22-.48a41.31,41.31,0,0,1,0-5.34l1.9-.14V87.67l-1.87-.12c-.06-1-.11-2-.16-2.93h-1.89v2.89l-1.19.23.06,1.21,1.15.25c0,1.85,0,3.65,0,5.44a2.07,2.07,0,0,0,2.52,2.29,13.84,13.84,0,0,0,2.11-.49ZM110.55,89.19c0,1.87,0,3.69,0,5.52A2,2,0,0,0,113,96.93a14.75,14.75,0,0,0,2.2-.51L114.77,95c-.39.08-.78.29-1.07.2s-1.11-.45-1.12-.72c-.1-1.77-.06-3.55-.06-5.34l1.88-.1V87.67l-1.92-.13V84.63h-1.94v2.84l-1.14.29V89Zm149.36-.06,2-.14-.07-1.34-1.93-.09v-3H258V87.5l-1.12.21V89l1.14.23c0,1.82,0,3.57,0,5.32s.91,2.64,2.72,2.42a13.62,13.62,0,0,0,1.91-.54l-.41-1.45a8.15,8.15,0,0,1-1,.24c-.75.09-1.26-.16-1.26-1ZM150.66,95c-.94.11-2.09.78-2.25-.59a45.72,45.72,0,0,1,0-5.24l1.9-.14V87.67l-2-.14V84.62h-1.9v2.91l-1.13.17V89l1.15.27c0,1.87,0,3.66,0,5.46a2,2,0,0,0,2.42,2.25,14.36,14.36,0,0,0,2.23-.5ZM44.91,47l.32,0,.42,2.69a10,10,0,0,0,.25,1.65c.32,1,1.21.51,1.84.53.23,0,.69-.52.69-.81.06-2.11,0-4.23,0-6.34,0-.68-.31-1-1-1-2.23-.21-2.38-.13-2.67,1.87l-.64-1.9-.48.14.57,5.3.41,0ZM52,62.08c-.38-2.74-.76-5.58-1.22-8.4-.06-.36-.62-.64-.94-1-.21.35-.58.7-.6,1.06-.07,1.59-.07,3.19,0,4.78.06,2-.36,4,.47,6,.28.65.58,1,1.13.84a1.71,1.71,0,0,0,1-1A11.58,11.58,0,0,0,52,62.08Zm133.75,33c-1.63.26-1.92,0-1.92-1.58V84.06h-1.92c0,3.74,0,7.41,0,11.07a1.7,1.7,0,0,0,1.84,1.8,18.35,18.35,0,0,0,2.28-.28ZM55.51,43.66c-1.73,0-3.23,0-4.74,0-.27,0-.75.44-.74.66a13.88,13.88,0,0,0,.33,4.25c.52,1.51,2.11.3,3.18.63a1.43,1.43,0,0,0,1.22-.71C55.1,47,55.26,45.39,55.51,43.66Zm-7-4.16h0V39c0-2.92-.17-3-3.1-2.67-.75.09-.93.33-.85,1a32.11,32.11,0,0,1,.28,4c0,1.09.4,1.35,1.4,1.33,2.31,0,2.31,0,2.31-2.31ZM166.1,96.75c0-1.56.07-3,0-4.5a2.52,2.52,0,0,1,1.76-2.66,11.66,11.66,0,0,1,1.44-.42v-1.5c-1.54-.4-2.23.83-3.22,1.6L166,87.7H164.3v9Zm74.88,0c0-1.57.06-3.08,0-4.58a2.47,2.47,0,0,1,1.74-2.56,10.39,10.39,0,0,1,1.47-.44V87.68c-1.55-.43-2.23.83-3.23,1.59l-.1-1.58h-1.68v9Zm-122.08,0c0-1.62,0-3.13,0-4.63a2.48,2.48,0,0,1,1.75-2.55,11.17,11.17,0,0,1,1.44-.42V87.63c-1.4,0-1.4,0-3.23,1.68l-.1-1.63h-1.6v9.09Zm73.15-9.09v9h1.75v-9Zm74.53,9.07v-9h-1.71a2.35,2.35,0,0,0-.08.32q0,3.66,0,7.3C264.77,96.86,264.78,96.86,266.58,96.75Zm27.77-52.17a4.19,4.19,0,1,0-.05-8.36A4.13,4.13,0,0,0,290,40.35,4.17,4.17,0,0,0,294.35,44.58ZM54.67,49.88c-1.17-.05-2.23-.16-3.29-.12-.32,0-.91.52-.87.64.15.51.45,1.33.79,1.38a25.14,25.14,0,0,0,3.6.06ZM234.2,37.49c-.88.13-2.13,0-2.28.38a3.57,3.57,0,0,0,0,2.63c.17.36,1.42.21,2.25.31Zm-185,6.82c0,2.4,0,4.62,0,6.85,0,.22.4.43.61.65.14-.31.45-.65.41-.93C50,48.76,49.6,46.65,49.22,44.31ZM192.05,86h1.72V84.06h-1.72Zm74.55-1.92h-1.73v2h1.73ZM45.3,51.92l.44-.56-1.27-1.63-.8,1.59Zm1.25,1,1.66,3.74C48.61,54.71,47.75,52.82,46.55,52.92ZM48.4,17.49a1.48,1.48,0,0,0-.87,1.9,2.91,2.91,0,0,0,.54.87l.33-.16Z"/><path d="M.24,24.72c.37-1.22,1.49-.34,2.29-.9V7.76H27V25.7l-1.88.15v9h3.18c0,1.82.08,3.53,0,5.23-.07,1.21.29,1.73,1.53,1.54.95-.15,1.36.2,1.32,1.24-.08,2,0,3.92-.06,5.88a2.16,2.16,0,0,1-.79,1.4,5.13,5.13,0,0,1-4.1,1.28c-.8-.12-1.2.32-1.21,1.09,0,3.24,0,6.48,0,9.72,0,.31.61.84,1,.87,1.17.11,2.37,0,3.7,0v3.19c0,2.84,0,5.68,0,8.52a1.6,1.6,0,0,1-1,1.79c-.72.29-.95.74-.93,1.64.07,6.16,0,12.32,0,18.48,0,.32-.23.85-.48.93a10.94,10.94,0,0,1-3.42,1c-6.4.09-12.8,0-19.2,0a8.66,8.66,0,0,1-.91-.08V77.91l2.15-.19V71.94c0-1.8,0-3.6,0-5.4,0-.72-.27-1-.93-1.26a21.13,21.13,0,0,1-3.26-2,1.14,1.14,0,0,1-.34-.84c0-4.12,0-8.24.05-12.36a2.31,2.31,0,0,1,.12-.44c1.18,0,2.37,0,3.56,0,.83,0,1.14-.28,1.12-1.11-.05-1.68,0-3.36,0-5,0-.63-.11-1.08-.81-1.25-2.14-.5-3.31-1.65-2.94-4a22.36,22.36,0,0,0,0-3.38l1.35-.23L.24,32.4ZM26.11,65.55H18.58l-.07-.42,1.23-.5V64.3a5.69,5.69,0,0,0-1.24,0c-.46.1-.89.46-1.34.48-1.4.07-2.8,0-4.2,0H9.2l-.08-.37,1.08-.59a8.86,8.86,0,0,0,1.88-1c1.61-1.44,3.14-3,4.7-4.46.72-.68.64-1.35,0-2.21-2.82,2.62-5.58,5.15-8.3,7.73-.38.36-.47,1.29-.83,1.37-1.29.3-1,1.26-1,2,0,3.12,0,6.24,0,9.36,0,.34.06.69.09,1.06.62,0,1.13,0,1.64,0,.27,0,.73,0,.78.1.33.83,1,.61,1.62.63,1,0,1.92.1,2.87,0s1.19.34,1.07,1.27a36.56,36.56,0,0,0-.44,5c0,3.39.9,6.41,4.15,8.2.58.33,1.13.73,1.69,1.11s.53.93-.1,1a17.31,17.31,0,0,1-4.47.29,29.41,29.41,0,0,1-4.59-1.3c-1.29-.36-1.45-.64-1.23-1.94A15,15,0,0,0,10,88.74c-.25-3.1-.64-6.2-1-9.29,0-.3-.38-.8-.61-.82-1.3-.08-2.61,0-4,0a6.34,6.34,0,0,0-.08.65c0,5.91,0,11.83,0,17.75,0,.83.34,1,1.08,1,6.2,0,12.4,0,18.59,0a6.11,6.11,0,0,0,.93-.13V78.63c-1.43,0-2.78,0-4.13,0-1.68,0-3.41.27-4.73-1.27A8.18,8.18,0,0,0,17,72.47a21.62,21.62,0,0,1,.68-4.25l.35,0c1.3,3.13.91,6.23-.48,9.44h8.55ZM21,54.57a10.42,10.42,0,0,0-.61-1.14,18,18,0,0,1-1.64-2.1,20.31,20.31,0,0,1-2.09-7.57c-.08-.8.07-1,.89-1.09,3-.13,6-.34,9-.53.34,0,.67-.11,1-.17,0-.5.06-.9.06-1.29,0-1.64,0-3.27,0-5.06h-5c-2.54,0-2.4-.22-1.85,2.32.28,1.3.45,2.61.69,4.06-1.56,0-2.83,0-4.1,0a1.25,1.25,0,0,1-.74-.9c-.1-1.44-.05-2.88-.1-4.32,0-.8.36-1.05,1.07-1.06s1.62.22,2-.13c.95-.91,2-.49,3-.6.53-.06,1.07-.06,1.59-.08V25.79c-3.19-.39-6.33.32-9.44-.65-1.53-.48-3.33-.13-5-.15H7.52a3.69,3.69,0,0,0-.34-3.73A9.52,9.52,0,0,1,6,14.32c.66-2.76,1.76-5.2,5.09-5.53a2.69,2.69,0,0,0,.63-.32H3.37V24.59c2.05.35,4,.79,6,1,1.71.17,3.44.06,5.15.13.38,0,1,.16,1.09.43,1.23,2.24,2.39,4.52,3.53,6.8a12.92,12.92,0,0,1,.62,1.85H16.68l-.8-3.93a15.31,15.31,0,0,0,.06,2.88c.07.82-.25,1.12-1.1,1.1-2.6-.06-5.2,0-7.8-.05a1.66,1.66,0,0,0-1.76,1.73c0,1.48,0,3,0,4.44,0,.27.19.73.35.76.75.14,1.51.15,2.53.23L6,35.86c.22-.15.32-.27.41-.27,3,0,5.91,0,8.87.15.21,0,.56.51.57.8.06,1,0,2.07,0,3.11,0,2.44,0,2.44-2.38,2.36-1.57,0-1.54,0-1.67-1.69-.06-.8-.23-1.59-.35-2.39l-.36.06c0,.87.07,1.75.16,2.62S11,42.14,9.89,42a1.43,1.43,0,0,0-.71,0c-.76.36-2.08.72-2.12,1.18A57.38,57.38,0,0,0,7,50.09c0,.84.81,1.11,1.43.53a8.85,8.85,0,0,0,.95-1.35l.11,1.54H13.8c-.19-.59-.37-1-.48-1.49-.48-1.89-1-3.78-1.35-5.69-.06-.28.36-.93.61-1,1.13-.1,2.28,0,3.39,0,.85,5.34,3.37,12.24,5.19,14.18,1-1.53,3.62-2,3-4.67A3.52,3.52,0,0,0,22,55Zm3.88-46.1H14.6a1.06,1.06,0,0,0,.62.35,13.08,13.08,0,0,1,6.47,3.41,2.92,2.92,0,0,1,1.1,2.53c-.14,1.38-.31,2.77-.32,4.16,0,1.12.68,2.36-.83,3.06-.06,0-.07.14-.11.21L20,25h4.9ZM28.09,51c0-2.23,0-4.3,0-6.36a.92.92,0,0,0-.56-.72c-1.8-.26-3.6-.45-5.39-.66a2.21,2.21,0,0,0-.15.53c.21,2.17.4,4.35.66,6.52a1.06,1.06,0,0,0,.77.66C24.9,51.05,26.41,51,28.09,51ZM15.9,54.73C13.23,57.17,10.59,59.55,8,62c-.33.32-.3,1-.52,1.79a3.6,3.6,0,0,0,.74-.3l7.88-7.19C16.73,55.72,16.55,55.27,15.9,54.73Zm-11.71-29c0,2.8,0,5.5,0,8.2,0,.27.49.53.76.8.21-.34.61-.69.59-1a15.5,15.5,0,0,1,1-7,7,7,0,0,0,.23-.95ZM14.66,51.94l-.46-.11C11.79,54.1,9.37,56.34,7,58.65c-.29.28-.22.93-.32,1.4l.39.16c2.53-2.35,5.08-4.68,7.57-7.07C14.84,52.94,14.66,52.35,14.66,51.94Zm-1-.18-.14-.38c-.68.15-1.53.09-2,.49C10,53.13,8.57,54.54,7.15,55.93a1.53,1.53,0,0,0-.27,2.21ZM7,61.74l.39.18c2.65-2.4,5.31-4.79,7.92-7.24.2-.19,0-.78,0-1.19-2.91,2.31-5.48,4.64-8,7C7.09,60.76,7.12,61.32,7,61.74Zm10.18-3.22L12.87,63C15.61,62.74,17.94,60.49,17.19,58.52Zm-10.26-3,4.2-4C9.05,51.17,7.67,52.47,6.93,55.57Zm17.26,4c-1.93.72-2.9,2-2,3.47C24.34,61.56,24.35,61.53,24.19,59.59Zm0-4.82c-2.58,1.57-3.3,2.62-2.45,3.82C22.46,57.23,24.62,57,24.18,54.77ZM24.11,57c-2.73,2.09-2.92,2.42-2.12,3.46C23,59.54,24.73,59.12,24.11,57ZM5.18,54.89a5.68,5.68,0,0,0,2.57-3.32C5.94,52,4.79,53.5,5.18,54.89Zm16.37,9.67c1.8.48,2.87-.65,2.49-2.52Zm6.31-.31-.1-.51c-.65,0-1.31,0-2,0-.23,0-.43.33-.64.5.23.21.49.61.68.58A16.06,16.06,0,0,0,27.86,64.25Zm-12-1.8.16.33a7.42,7.42,0,0,0,1.76-.73c.17-.12-.06-.79-.11-1.26ZM5.51,57.36l1.07-2.63C4.8,55.7,4.67,56,5.51,57.36ZM6.9,63.13,5.32,64.25l.22.42,2,.14Zm-.66-1.52c-.76.61-1.55,1.09-1.12,2.44C5.71,63.2,7.06,63,6.24,61.61ZM6,57.12c-1,.68-1.33,1.37-.81,2.34C6.4,59,6,58.12,6,57.12ZM25.76,42.8c1.25.1,2.62,1,3.74-.56ZM4.87,61.63l.37.14c.7-.48,1.39-1,.35-2.11Z"/><path d="M50.93,79.26l.16-.74a2.36,2.36,0,0,0-.6-.09c-1,.11-1.37-.32-1.34-1.38.09-3.19.06-6.39.09-9.59,0-.07.06-.14.13-.3.93.39,1.53,0,2.31-.66.58-.51,1.77-.29,2.88-.42L51.35,78.4h9.76V66.1c-1.28,0-2.59,0-3.89,0a20.3,20.3,0,0,1-2.58-.25c-.79-.13-1.57-.38-2.44-.6V60.7a11.3,11.3,0,0,1,2.33.06c.27.05.57.73.56,1.12,0,1.15-.15,2.29-.25,3.53h6.3V52.69c-1.85,0-3.68,0-5.51,0-.23,0-.62.69-.61,1,0,1.48.2,2.95.34,4.42s0,1.77-1.55,1.85a5,5,0,0,1-1.05.15c-.31-.07-.77-.34-.8-.58-.34-2.2-.59-4.42-.9-6.86.63,0,1.16,0,1.69,0,.8,0,1.68.34,2.31-.57.13-.19.67-.12,1-.12,1.66,0,3.33,0,5.06,0V43.54c-1.42,0-2.81,0-4.2,0A6.36,6.36,0,0,1,55.49,43a4.19,4.19,0,0,0-1-.21c-1,0-2.08,0-3.12,0-1.24,0-1.42-.24-1.29-1.52a5.28,5.28,0,0,0,0-1.68l-.45,2.77h-.21V36.51l.29-.12.61.68a3.44,3.44,0,0,1,.81-.65,2.86,2.86,0,0,1,1.06-.11c1.3-.06,2.67.57,3.84-.58.21-.21.77-.06,1.17-.06h4V26.81H50.86l4.62,8.41c-2.09.58-4.65.33-5.18-.38a5.22,5.22,0,0,1-.34.48c-.07.08-.2.1-.44.21-.68-1.55-.12-3.07-.28-4.57l.3,0L50.26,33l.27-.08c-.37-1.28-.65-2.59-1.13-3.82-.66-1.65.2-2.93,2.17-3,2.72,0,5.44,0,8.15,0h1.4V8.34H50.49c-1.2,0-1.78-.56-1.79-1.74,0-2.12,0-4.24,0-6.36h.72c0,2,0,4.08,0,6.11,0,1,.5,1.32,1.43,1.31,3.16,0,6.32,0,9.48,0h1.39V99.14c-.42,0-.84.07-1.26.07-3.24,0-6.48,0-9.71,0a2,2,0,0,0-1.44.51c-.39.53.51,1,.54,1.22.12,1,1.3,1.8.59,3a35.58,35.58,0,0,0-1.52,3.32l-.38,0a31.48,31.48,0,0,1-1.62-4.4c-.12-.54.64-1.29,1-1.94.16-.28.46-.52.53-.81.28-1.29.77-1.71,2.12-1.71h9.12c.47,0,.94,0,1.46-.07V79.23H50.9Zm10.24-43c-1.63,0-3.14,0-4.64,0a1,1,0,0,0-.65.71c0,1.7,0,3.41,0,5.12,0,.27.39.75.61.76,1.54.07,3.08,0,4.64,0Z"/><path d="M57.12,108.24c-1.33-.8-2.5-1.69-2.43-3.49a3.36,3.36,0,0,1,2.65-3.25,3.53,3.53,0,0,1,4.08,2,3.38,3.38,0,0,1-1.18,4.14l-1,.64Zm1.06-.61a2.82,2.82,0,1,0-2.9-2.76A2.91,2.91,0,0,0,58.18,107.63Z"/><path d="M79,18.7H96.1a12.77,12.77,0,0,1,12.61,11.88c.37,6-1.88,9.82-7.7,13.1l9.46,15.13c-2.44,0-4.68,0-6.93,0-.3,0-.65-.52-.87-.87-2.57-4-5.14-8.09-7.67-12.16a1.62,1.62,0,0,0-1.62-.89c-2.68,0-5.35,0-8.15,0V58.74H79Zm6.26,20.41a1.74,1.74,0,0,0,.34.12c3.16,0,6.33-.1,9.48.06,4.48.23,6.41-2.66,7.09-5.84.93-4.4-2.16-9.67-7.46-9.23-2.7.23-5.44,0-8.16,0H85.22Z"/><path d="M128,59.38a14.77,14.77,0,0,1-15.23-15.21c0-8.94,6.39-15.39,15.28-15.39a14.87,14.87,0,0,1,15.16,15.31A14.91,14.91,0,0,1,128,59.38Zm-8.86-14.69c.11.74.19,1.54.37,2.31a9.14,9.14,0,0,0,7.39,7,8.37,8.37,0,0,0,8.58-4.7A10.78,10.78,0,0,0,135,38a8,8,0,0,0-12-2.14C120.21,38.08,119.14,41.14,119.15,44.69Z"/><path d="M291.4,74.37H77.17V72.59H291.4Z"/><path d="M173.12,58.76h-6.27V37.56H163V32.71h3.74c.12-2.35.13-4.58.36-6.79.47-4.57,3.24-8,7.17-8.71a12.56,12.56,0,0,1,8.92,1.61c-.45,1.53-.89,3-1.33,4.48-1-.33-1.91-.69-2.83-.89-2.92-.62-5.07.66-5.58,3.59a59.18,59.18,0,0,0-.47,6.69h7.56v4.82h-7.38Z"/><path d="M148.57,17.58h6.25V49.22c0,3.8,1.68,5.06,5.33,4l.95-.28c.31,1.68.6,3.3.92,5-3,1.09-6,1.83-9.19,1-2.68-.71-4.23-3-4.25-6.23s0-6.47,0-9.71V17.58Z"/><path d="M46.11,78.25c.06.25.06.63.21.72a1.65,1.65,0,0,0,.94.12c1-.09,1.2.4,1.18,1.3-.07,2.79-.08,5.59-.1,8.38a31.92,31.92,0,0,1-.21,4.34l-.4-1.18-.23,0c.18.75.41,1.5.54,2.26a5.26,5.26,0,0,1,.18,2.43c-.14.4-1.23.7-1.86.66-.9-.07-1.21-.77-1-1.69a10.16,10.16,0,0,0,.65-3c-.08-1.86-.45-3.71-.71-5.56-.37-2.69-1-5.37.32-8.07H36.78V98.57H48.16V99H36.05V7.7H48.42l0,.42a17.66,17.66,0,0,1-3.71.13c-1.32,0-2.64,0-4,0h-4V26.14c1.44,0,2.87-.06,4.29,0,2.23.11,4.47.3,6.7.49.23,0,.6.34.61.54a2.77,2.77,0,0,1-.27.93c.12,1.06.3,2.07.34,3.09a23.53,23.53,0,0,1-.06,3.36c0,.33-.54.93-.76.9-3.1-.41-6.09.75-9.17.57-.51,0-1,0-1.65,0v6.74c2,0,3.94,0,5.92,0,.18,0,.51-.62.48-.92-.15-1.31-.43-2.6-.63-3.9-.07-.46-.06-.94-.09-1.46,1-.32,1.58.05,1.66,1a28,28,0,0,1,.21,4.66c-.08.94-1.07,1.22-2,1.23-1.83,0-3.67,0-5.62,0v8.55c1.69,0,3.39-.05,5.1,0a8.94,8.94,0,0,1,1.63.55c.5.12,1,.09,1.53.2s.9.2,1,.44c.86,2.3,1.67,4.63,2.43,7,.27.82-.25,1.26-1,1.66a9.45,9.45,0,0,0-2.1,1.64c-.56.54-.83.15-1.14-.22a8.31,8.31,0,0,1-1.68-6.66c.14-1,.42-2,.53-3.06,0-.26-.32-.8-.51-.8-1.9-.06-3.81,0-5.8,0V65.2h8.74c-.17-1.64.78-2.77,2.88-3.21,0,1,0,2,0,2.94a.54.54,0,0,1-.36.39,22.9,22.9,0,0,1-3.55.6c-2.55.09-5.1,0-7.71,0V78.28h9.37ZM36.75,35.49c1.67,0,3.22,0,4.77,0,.7,0,.72-.42.77-.93.19-1.66.39-3.32.61-5,.12-.92.29-1.85.45-2.84h-6.6Z"/><path d="M276.52,51.7c.32,2.43,1.45,4,3.6,4.69a4.87,4.87,0,0,0,5.36-1.72c.35-.4,1.44-.14,2.19-.18l.17.41a12.56,12.56,0,0,1-1.25,1.63A7.73,7.73,0,0,1,276,56.3a8,8,0,0,1,.38-11.22,7.6,7.6,0,0,1,10.58.53,7.75,7.75,0,0,1,1.89,5c0,.78-.23,1.06-1,1.05-3.28,0-6.55,0-9.83,0Zm9.77-1.88a4.83,4.83,0,0,0-4.77-4.71,4.77,4.77,0,0,0-4.94,4.64c.26,0,.53.07.8.07Z"/><path d="M50.27,25.82c-.85.31-1.06-.09-1.06-.78,0-1.88,0-3.75,0-5.63,0-2.74.07-5.49.13-8.24,0-1.83.2-2,1.9-1.47A16.4,16.4,0,0,1,54.7,11c2.17,1.25,1.79,3.41,1.64,5.44,0,.52-.29,1.14-.09,1.52.86,1.68,0,3.16-.38,4.68A1.66,1.66,0,0,1,54.05,24c-.56,0-1.12-.05-1.67-.1C50.67,23.75,50.31,24.05,50.27,25.82Z"/><path d="M48.5,9.32c0,2.21,0,4.36,0,6.51a1.48,1.48,0,0,1-.44.91,2.7,2.7,0,0,0-.25,4c1.24,1.52.56,3.19.49,4.81,0,.16-.47.42-.73.43-1.19.05-2.38,0-3.62,0a2.7,2.7,0,0,1,.07-.77c.89-1.77.15-3.13-1.14-4.25-2.82-2.45-2.72-6.72-.11-9.64C44.54,9.34,45.7,8.89,48.5,9.32Z"/><path d="M248,43.5h2.35c0,2.7,0,5.37,0,8a11.5,11.5,0,0,0,.26,2.49,2.84,2.84,0,0,0,3.63,2.23,4.79,4.79,0,0,0,4-4.87V43.53h2.57V46c0,2.6,0,5.2,0,7.8,0,.83-.24,1.68.61,2.42.35.31.12,1.27.14,1.9-2.2.51-2.72,0-3-2.65-.28.26-.5.44-.69.65a7.22,7.22,0,0,1-4.46,2.35c-3,.43-5.23-1-5.43-4C247.76,50.86,248,47.22,248,43.5Z"/><path d="M193.94,58.21h-2.39V43.55h2.15v2.81l.82-.89a7.16,7.16,0,0,1,5.24-2.26A3.85,3.85,0,0,1,204,46.5a15.26,15.26,0,0,1,.29,3.09c0,2.84,0,5.67,0,8.59h-2.43c0-.42-.08-.84-.08-1.26,0-2.28,0-4.55,0-6.83,0-.4,0-.8,0-1.2-.33-3.35-2.67-4.45-5.46-2.55a4.73,4.73,0,0,0-2.33,4.3C194,53.12,193.94,55.59,193.94,58.21Z"/><path d="M207.82,54.68a9.08,9.08,0,0,0,5.41,2,6.2,6.2,0,0,0,1-.07c1.5-.26,2.41-1.07,2.49-2.19s-.57-1.7-2.16-2.17c-1.42-.41-2.86-.74-4.27-1.19s-2.57-1-2.73-2.64a4.18,4.18,0,0,1,2.1-4.36,8.32,8.32,0,0,1,9,1.18l-1.09,1.45a6.65,6.65,0,0,0-4.94-1.56,3.2,3.2,0,0,0-1.78.57,2.88,2.88,0,0,0-.9,1.9A2.12,2.12,0,0,0,211.07,49a21.06,21.06,0,0,0,3.08.92c.77.22,1.54.43,2.29.71,1.51.57,2.66,1.44,2.67,3.27a4,4,0,0,1-2.57,4,9.31,9.31,0,0,1-6.79.06,26.35,26.35,0,0,1-3.08-1.42Z"/><path d="M245.93,57.78a28.53,28.53,0,0,1-4.24.57c-1.82,0-2.81-1.21-2.83-3.05,0-2.8,0-5.6,0-8.4V45.55l-1.93-.17V43.51l1.89-.11V38.65h2.56v4.77h3.17v2h-3.13c0,3.23,0,6.3,0,9.36,0,.93.9,1.47,1.93,1.32a14,14,0,0,0,1.85-.5Z"/><path d="M272.07,55.56l.65,2.06a24.09,24.09,0,0,1-3.13.76c-2.56.27-3.89-1-3.9-3.57V45.55l-1.89-.18V43.5l1.88-.1V38.63h2.55v4.8h3.23v2h-3.2v2.94c0,1.87,0,3.75,0,5.63s.86,2.48,2.7,1.94Z"/><path d="M220.66,45.37V43.52l2-.14V38.64h2.44V43.4h3.26v2h-3.21c0,3.17,0,6.16,0,9.14a1.6,1.6,0,0,0,2.11,1.53c.54-.1,1.06-.3,1.67-.47.13.31.26.59.35.87s.16.62.29,1.12a23.67,23.67,0,0,1-2.86.75c-2.73.35-4.06-.87-4.06-3.59,0-3,0-6.07,0-9.21Z"/><path d="M226.74,98.79l1-.9c1.47,1.33,3.09,2,4.93,1,1.34-.71,1.36-2,1.22-3.34-2.71,1.8-4.65,1.78-6.17,0a5.2,5.2,0,0,1,.1-6.71c1.64-1.75,3.69-1.68,6.31.29l.11-1.38h1.52c0,.32.07.66.07,1q0,3.82,0,7.67a3.93,3.93,0,0,1-3.42,4.23A5.32,5.32,0,0,1,226.74,98.79ZM234,92.43c0-2-1.1-3.36-2.75-3.36a3.05,3.05,0,0,0-2.72,3.23,2.94,2.94,0,0,0,2.89,3C233,95.32,234,94.25,234,92.43Z"/><path d="M187,58.21h-2.4v-20H187Z"/><path d="M224.52,92.87h-7.3A2.74,2.74,0,0,0,219,95.41a2.47,2.47,0,0,0,2.79-.51c.73-.83,1.34-.56,2.07-.2-.56,1.84-3.48,2.84-5.77,2a4.8,4.8,0,0,1-2.79-5.82,4.72,4.72,0,0,1,5.75-3.26C223.37,88.06,224.82,90.2,224.52,92.87Zm-1.86-1.42c-.31-1.75-1.5-2.76-3-2.6a2.52,2.52,0,0,0-2.39,2.6Z"/><path d="M274,97a4.76,4.76,0,0,1,0-9.52,4.73,4.73,0,0,1,4.78,4.79A4.66,4.66,0,0,1,274,97Zm2.78-4.76A2.91,2.91,0,0,0,274,89.07a3,3,0,0,0-2.73,3.23,2.76,2.76,0,1,0,5.49-.08Z"/><path d="M83.47,97a4.58,4.58,0,0,1-4.75-4.74A4.73,4.73,0,1,1,83.47,97Zm2.71-4.79a2.93,2.93,0,0,0-2.77-3.12,3.06,3.06,0,0,0-2.74,3.2,2.77,2.77,0,1,0,5.51-.08Z"/><path d="M254.63,96.78c-1.26.33-1.94-.08-2.1-.85a21.08,21.08,0,0,1-3.82,1A2.63,2.63,0,0,1,246,94.57a2.6,2.6,0,0,1,2-3,6.88,6.88,0,0,1,2.11-.32,17.64,17.64,0,0,1,2.53.34c-.44-.94-.59-1.88-1.14-2.29-1.44-1.08-2.87-.28-4.37.51-.19-.37-.38-.73-.59-1.11a6.13,6.13,0,0,1,5.07-1.06,3.21,3.21,0,0,1,2.59,3.05c.05.63,0,1.28,0,1.91.11,1,.33,1.9.46,2.85A9.9,9.9,0,0,1,254.63,96.78Zm-4.22-4.69-.14.24a7.45,7.45,0,0,0-1,.07c-1,.19-1.76.95-1.59,1.76a1.71,1.71,0,0,0,1.92,1.41,4.18,4.18,0,0,0,.94-.13c1.17-.35,2-1.35,1.59-2.24C251.93,92.67,251,92.45,250.41,92.09Z"/><path d="M177,91.26c.09-2.57-1.77-3.18-5.12-1.49l-.56-.94c1.08-1.42,4.45-1.73,5.93-.86a3.41,3.41,0,0,1,1.7,3.1c0,1.12-.07,2.24,0,3.35a13.71,13.71,0,0,0,.64,2.32c-1.37.33-2.15.08-2.3-.83a20,20,0,0,1-3.78,1,2.74,2.74,0,0,1-2.84-2.54,2.62,2.62,0,0,1,2.09-2.83A29.68,29.68,0,0,1,177,91.26Zm-2.46,4.49a6.93,6.93,0,0,0,1.93-1,2.37,2.37,0,0,0,.51-1.69c0-.25-.76-.53-1.22-.64a4.19,4.19,0,0,0-1.54,0c-.92.15-1.7.55-1.69,1.66C172.57,95,173.37,95.58,174.57,95.75Z"/><path d="M130.77,95.41a14.06,14.06,0,0,1-2.7,1.43c-2.23.65-3.85-.52-3.95-2.85-.09-2.07,0-4.14,0-6.3H126c0,1.71,0,3.38,0,5,0,1.82.53,2.57,1.76,2.59a2.71,2.71,0,0,0,2.78-2.8c0-1.59,0-3.19,0-4.85h1.88c0,2,0,4,0,6,0,.55.37,1.09.41,1.64a7.4,7.4,0,0,1-.25,1.59,12.51,12.51,0,0,1-1.71-.76C130.75,96,130.8,95.59,130.77,95.41Z"/><path d="M289.45,96.74h-1.71V92.4c0-.24,0-.48,0-.72-.05-1.74-.61-2.53-1.75-2.52a3,3,0,0,0-2.74,2.68c-.05,1.59,0,3.18,0,4.87h-1.79v-9H283l.14,1.16a21.39,21.39,0,0,1,3.44-1.29,2.22,2.22,0,0,1,2.87,2.12C289.58,92,289.45,94.33,289.45,96.74Z"/><path d="M161.74,96.77c-1.74.23-2,0-2.2-1.23a16.74,16.74,0,0,1-3.47,1.38,2.52,2.52,0,0,1-3.15-2.59c-.12-2.18,0-4.38,0-6.64h1.85v2.93c0,.76,0,1.52,0,2.28,0,1.74.54,2.43,1.78,2.43a2.69,2.69,0,0,0,2.73-2.6c0-1.28,0-2.56,0-3.83,0-.39,0-.78.06-1.23h1.81c0,1.25-.07,2.51,0,3.77s-.44,2.84.56,4.12C161.9,95.81,161.74,96.33,161.74,96.77Z"/><path d="M205.22,96.75h-1.8V92.89c0-.4,0-.8,0-1.2-.07-1.79-.59-2.54-1.74-2.52A2.89,2.89,0,0,0,199,92c0,1.56,0,3.11,0,4.75h-1.8v-9h1.55l.07,1.25a16.16,16.16,0,0,1,3.15-1.35c1.94-.41,3.15.51,3.27,2.48C205.32,92.23,205.22,94.43,205.22,96.75Z"/><path d="M50.9,79.23a38.63,38.63,0,0,0-.58,12.37,2.87,2.87,0,0,0,1.47,2.45c1.72.89,3.49,1.67,5.24,2.5a2.58,2.58,0,0,1,.37.22c0,.13,0,.26-.06.27a17.66,17.66,0,0,1-7.69.17c-.27-.06-.59-.69-.6-1.06-.07-2,0-3.92,0-5.87,0-3.24,0-6.47.09-9.71,0-.43.07-.86.12-1.43l1.7.12Z"/><path d="M234.17,58.2h-2.35V43.52h2.35Z"/><path d="M142,94.13l1.71.53a4.38,4.38,0,0,1-5,2.25,4.81,4.81,0,0,1-.56-9.23,4.5,4.5,0,0,1,5.44,2c-.85.46-1.54.85-2.5,0a2.88,2.88,0,0,0-2.21-.33A2.69,2.69,0,0,0,136.9,92a3.1,3.1,0,0,0,1.77,3.13A2.62,2.62,0,0,0,142,94.13Z"/><path d="M107.57,88.62l-.71,1a12.77,12.77,0,0,0-2-.73,3.76,3.76,0,0,0-1.86.12,1.43,1.43,0,0,0-.71,1.08,1.26,1.26,0,0,0,.72.92c1,.37,2,.58,3,.9s1.94,1,1.9,2.29a2.58,2.58,0,0,1-2.06,2.49,7,7,0,0,1-5.81-1l.56-1c1.33.29,2.54.62,3.77.8.8.11,1.67-.22,1.63-1.13,0-.45-.77-1-1.31-1.25a18.51,18.51,0,0,0-2.4-.71c-1-.31-1.8-.79-1.84-1.94a2.57,2.57,0,0,1,1.69-2.65A5.65,5.65,0,0,1,107.57,88.62Z"/><path d="M95.48,84.41l-.35,1.19c-2.43-.42-2.92.14-2.66,3l2.17.14v1.36l-2.24.11v6.51H90.54V90.32l-1.22-.24V88.8l1-.19a.84.84,0,0,0,.12-.32c0-.36,0-.72,0-1.08C90.55,84.24,92.8,83,95.48,84.41Z"/><path d="M213.13,95l.37,1.49a13.84,13.84,0,0,1-2.11.49,2.07,2.07,0,0,1-2.52-2.29c-.05-1.79,0-3.59,0-5.44L207.71,89l-.06-1.21,1.19-.23V84.62h1.89c.05.95.1,1.92.16,2.93l1.87.12V89l-1.9.14a41.31,41.31,0,0,0,0,5.34C211.08,95.72,212.22,95.07,213.13,95Z"/><path d="M110.55,89.19,109.4,89v-1.2l1.14-.29V84.63h1.94v2.91l1.92.13V89l-1.88.1c0,1.79,0,3.57.06,5.34,0,.27.69.59,1.12.72s.68-.12,1.07-.2l.43,1.45a14.75,14.75,0,0,1-2.2.51,2,2,0,0,1-2.44-2.22C110.51,92.88,110.55,91.06,110.55,89.19Z"/><path d="M259.91,89.13v5c0,.86.51,1.11,1.26,1a8.15,8.15,0,0,0,1-.24l.41,1.45a13.62,13.62,0,0,1-1.91.54c-1.81.22-2.7-.59-2.72-2.42s0-3.5,0-5.32L256.84,89V87.71L258,87.5V84.61h1.91v3l1.93.09.07,1.34Z"/><path d="M150.66,95l.41,1.47a14.36,14.36,0,0,1-2.23.5,2,2,0,0,1-2.42-2.25c0-1.8,0-3.59,0-5.46L145.26,89V87.7l1.13-.17V84.62h1.9v2.91l2,.14V89l-1.9.14a45.72,45.72,0,0,0,0,5.24C148.57,95.74,149.72,95.07,150.66,95Z"/><path d="M44.91,47,44.65,49l-.41,0-.57-5.3.48-.14.64,1.9c.29-2,.44-2.08,2.67-1.87.7.07,1,.34,1,1,0,2.11,0,4.23,0,6.34,0,.29-.46.81-.69.81-.63,0-1.52.49-1.84-.53a10,10,0,0,1-.25-1.65l-.42-2.69Z"/><path d="M46.14,78.28c0-.74-.08-1.49-.08-2.24,0-2.87,0-5.74.08-8.62,0-1.23.37-1.57,1.5-1.32a1.22,1.22,0,0,1,.79.88c0,3.47,0,6.94,0,10.41,0,.65-.21,1-.9.94l-1.42-.08Z"/><path d="M52,62.08a11.58,11.58,0,0,1-.16,2.35,1.71,1.71,0,0,1-1,1c-.55.16-.85-.19-1.13-.84-.83-2-.41-4-.47-6,0-1.59,0-3.19,0-4.78,0-.36.39-.71.6-1.06.32.31.88.59.94,1C51.24,56.5,51.62,59.34,52,62.08Z"/><path d="M185.75,95.1l.3,1.55a18.35,18.35,0,0,1-2.28.28,1.7,1.7,0,0,1-1.84-1.8c-.05-3.66,0-7.33,0-11.07h1.92v9.46C183.83,95.11,184.12,95.36,185.75,95.1Z"/><path d="M55.51,43.66c-.25,1.73-.41,3.32-.75,4.86a1.43,1.43,0,0,1-1.22.71c-1.07-.33-2.66.88-3.18-.63A13.88,13.88,0,0,1,50,44.35c0-.22.47-.65.74-.66C52.28,43.63,53.78,43.66,55.51,43.66Z"/><path d="M48.47,39.5v1c0,2.33,0,2.29-2.31,2.31-1,0-1.42-.24-1.4-1.33a32.11,32.11,0,0,0-.28-4c-.08-.72.1-1,.85-1,2.93-.33,3.05-.25,3.1,2.67v.48Z"/><path d="M166.1,96.75h-1.8v-9H166l.1,1.57c1-.77,1.68-2,3.22-1.6v1.5a11.66,11.66,0,0,0-1.44.42,2.52,2.52,0,0,0-1.76,2.66C166.17,93.72,166.1,95.19,166.1,96.75Z"/><path d="M241,96.74h-1.81v-9h1.68l.1,1.58c1-.76,1.68-2,3.23-1.59v1.48a10.39,10.39,0,0,0-1.47.44A2.47,2.47,0,0,0,241,92.16C241,93.66,241,95.17,241,96.74Z"/><path d="M118.9,96.77h-1.76V87.68h1.6l.1,1.63c1.83-1.73,1.83-1.73,3.23-1.68v1.54a11.17,11.17,0,0,0-1.44.42,2.48,2.48,0,0,0-1.75,2.55C119,93.64,118.9,95.15,118.9,96.77Z"/><path d="M192.05,87.68h1.75v9h-1.75Z"/><path d="M266.58,96.75c-1.8.11-1.81.11-1.8-1.42q0-3.64,0-7.3a2.35,2.35,0,0,1,.08-.32h1.71Z"/><path d="M294.35,44.58A4.17,4.17,0,0,1,290,40.35a4.13,4.13,0,0,1,4.32-4.13,4.19,4.19,0,1,1,.05,8.36Zm3.75-4.2a3.74,3.74,0,1,0-3.75,3.67A3.6,3.6,0,0,0,298.1,40.38Z"/><path d="M54.67,49.88l.23,2a25.14,25.14,0,0,1-3.6-.06c-.34-.05-.64-.87-.79-1.38,0-.12.55-.63.87-.64C52.44,49.72,53.5,49.83,54.67,49.88Z"/><path d="M234.2,37.49v3.32c-.83-.1-2.08,0-2.25-.31a3.57,3.57,0,0,1,0-2.63C232.07,37.51,233.32,37.62,234.2,37.49Z"/><path d="M49.22,44.31c.38,2.34.75,4.45,1.05,6.57,0,.28-.27.62-.41.93-.21-.22-.61-.43-.61-.65C49.2,48.93,49.22,46.71,49.22,44.31Z"/><path d="M192.05,86V84.06h1.72V86Z"/><path d="M266.6,84.08v2h-1.73v-2Z"/><path d="M45.3,51.92l-1.63-.6.8-1.59,1.27,1.63Z"/><path d="M46.55,52.92c1.2-.1,2.06,1.79,1.66,3.74Z"/><path d="M48.4,17.49V20.1l-.33.16a2.91,2.91,0,0,1-.54-.87A1.48,1.48,0,0,1,48.4,17.49Z"/><path class="cls-1" d="M26.11,65.55V77.71H17.56C19,74.5,19.34,71.4,18,68.27l-.35,0A21.62,21.62,0,0,0,17,72.47a8.18,8.18,0,0,1-.94,4.89c1.32,1.54,3.05,1.3,4.73,1.27,1.35,0,2.7,0,4.13,0V97.84A6.11,6.11,0,0,1,24,98c-6.19,0-12.39,0-18.59,0-.74,0-1.08-.17-1.08-1,0-5.92,0-11.84,0-17.75a6.34,6.34,0,0,1,.08-.65c1.35,0,2.66,0,4,0,.23,0,.57.52.61.82.38,3.09.77,6.19,1,9.29a15,15,0,0,1-.36,3.44c-.22,1.3-.06,1.58,1.23,1.94a29.41,29.41,0,0,0,4.59,1.3A17.31,17.31,0,0,0,20,95.13c.63-.1.67-.63.1-1s-1.11-.78-1.69-1.11c-3.25-1.79-4.15-4.81-4.15-8.2a36.56,36.56,0,0,1,.44-5c.12-.93,0-1.35-1.07-1.27s-1.91,0-2.87,0c-.61,0-1.29.2-1.62-.63-.05-.11-.51-.09-.78-.1-.51,0-1,0-1.64,0,0-.37-.09-.72-.09-1.06,0-3.12,0-6.24,0-9.36,0-.79-.25-1.75,1-2,.36-.08.45-1,.83-1.37,2.72-2.58,5.48-5.11,8.3-7.73.66.86.74,1.53,0,2.21-1.56,1.49-3.09,3-4.7,4.46a8.86,8.86,0,0,1-1.88,1l-1.08.59.08.37H13c1.4,0,2.8.05,4.2,0,.45,0,.88-.38,1.34-.48a5.69,5.69,0,0,1,1.24,0v.33l-1.23.5.07.42Zm-17.85.08c.32,4,2.57,7.81,1.14,12.12,1.85,0,3.52,0,5.19,0a1.07,1.07,0,0,0,.81-.39,7.91,7.91,0,0,0,1.11-2.82c.12-2.67,0-5.34,1.15-7.86a3.73,3.73,0,0,0,.1-1Zm7.51,23.71c1.32,2.5,3.27,4.14,4.62,2.27Zm-.56-8.09,1.38-2.45C15.37,78.55,15,79.2,15.21,81.25Z"/><path class="cls-1" d="M21,54.57,22,55a3.52,3.52,0,0,1,2.14-2.86c.63,2.72-2,3.14-3,4.67C19.34,54.87,16.82,48,16,42.63c-1.11,0-2.26-.05-3.39,0-.25,0-.67.67-.61,1,.39,1.91.87,3.8,1.35,5.69.11.46.29.9.48,1.49H9.47l-.11-1.54a8.85,8.85,0,0,1-.95,1.35c-.62.58-1.41.31-1.43-.53a57.38,57.38,0,0,1,.08-6.94c0-.46,1.36-.82,2.12-1.18a1.43,1.43,0,0,1,.71,0c1.09.15,1.44-.37,1.34-1.38s-.11-1.75-.16-2.62l.36-.06c.12.8.29,1.59.35,2.39.13,1.64.1,1.64,1.67,1.69,2.42.08,2.41.08,2.38-2.36,0-1,.06-2.08,0-3.11,0-.29-.36-.8-.57-.8-3-.1-5.91-.12-8.87-.15-.09,0-.19.12-.41.27L8.17,42c-1-.08-1.78-.09-2.53-.23-.16,0-.35-.49-.35-.76,0-1.48,0-3,0-4.44A1.66,1.66,0,0,1,7,34.79c2.6,0,5.2,0,7.8.05.85,0,1.17-.28,1.1-1.1a15.31,15.31,0,0,1-.06-2.88l.8,3.93h3.08a12.92,12.92,0,0,0-.62-1.85c-1.14-2.28-2.3-4.56-3.53-6.8-.14-.27-.71-.41-1.09-.43-1.71-.07-3.44,0-5.15-.13-2-.2-3.95-.64-6-1V8.47h8.34a2.69,2.69,0,0,1-.63.32C7.75,9.12,6.65,11.56,6,14.32a9.52,9.52,0,0,0,1.19,6.93A3.69,3.69,0,0,1,7.52,25H9.76c1.67,0,3.47-.33,5,.15,3.11,1,6.25.26,9.44.65v9.08c-.52,0-1.06,0-1.59.08-1,.11-2.07-.31-3,.6-.37.35-1.31.12-2,.13s-1.1.26-1.07,1.06c0,1.44,0,2.88.1,4.32a1.25,1.25,0,0,0,.74.9c1.27.09,2.54,0,4.1,0-.24-1.45-.41-2.76-.69-4.06-.55-2.54-.69-2.32,1.85-2.32h5c0,1.79,0,3.42,0,5.06,0,.39,0,.79-.06,1.29-.37.06-.7.15-1,.17-3,.19-6,.4-9,.53-.82,0-1,.29-.89,1.09a20.31,20.31,0,0,0,2.09,7.57,18,18,0,0,0,1.64,2.1A10.42,10.42,0,0,1,21,54.57ZM8.72,42.72l.85,5.36,3.12,1.33a5.84,5.84,0,0,0,0-.9c-.3-1.36-.65-2.71-.92-4.07C11.33,42.53,10.79,42.2,8.72,42.72Z"/><path class="cls-1" d="M24.91,8.47V25H20l1.52-2.76c0-.07,0-.18.11-.21,1.51-.7.83-1.94.83-3.06,0-1.39.18-2.78.32-4.16a2.92,2.92,0,0,0-1.1-2.53,13.08,13.08,0,0,0-6.47-3.41,1.06,1.06,0,0,1-.62-.35Z"/><path class="cls-1" d="M28.09,51c-1.68,0-3.19,0-4.7,0a1.06,1.06,0,0,1-.77-.66c-.26-2.17-.45-4.35-.66-6.52a2.21,2.21,0,0,1,.15-.53c1.79.21,3.59.4,5.39.66a.92.92,0,0,1,.56.72C28.11,46.71,28.09,48.78,28.09,51Z"/><path class="cls-1" d="M15.9,54.73c.65.54.83,1,.21,1.56L8.23,63.48a3.6,3.6,0,0,1-.74.3C7.71,63,7.68,62.31,8,62,10.59,59.55,13.23,57.17,15.9,54.73Z"/><path class="cls-1" d="M4.19,25.69h2.6a7,7,0,0,1-.23.95,15.5,15.5,0,0,0-1,7c0,.32-.38.67-.59,1-.27-.27-.75-.53-.76-.8C4.16,31.19,4.19,28.49,4.19,25.69Z"/><path class="cls-1" d="M14.66,51.94c0,.41.18,1,0,1.2-2.49,2.39-5,4.72-7.57,7.07l-.39-.16c.1-.47,0-1.12.32-1.4,2.37-2.31,4.79-4.55,7.2-6.82Z"/><path class="cls-1" d="M13.66,51.76,6.88,58.14a1.53,1.53,0,0,1,.27-2.21c1.42-1.39,2.83-2.8,4.36-4.06.48-.4,1.33-.34,2-.49Z"/><path class="cls-1" d="M7,61.74c.11-.42.08-1,.34-1.23,2.52-2.38,5.09-4.71,8-7,0,.41.17,1,0,1.19-2.61,2.45-5.27,4.84-7.92,7.24Z"/><path class="cls-1" d="M17.19,58.52c.75,2-1.58,4.22-4.32,4.5Z"/><path class="cls-1" d="M6.93,55.57c.74-3.1,2.12-4.4,4.2-4Z"/><path class="cls-1" d="M24.19,59.59c.16,1.94.15,2-2,3.47C21.29,61.6,22.26,60.31,24.19,59.59Z"/><path class="cls-1" d="M24.18,54.77c.44,2.23-1.72,2.46-2.45,3.82C20.88,57.39,21.6,56.34,24.18,54.77Z"/><path class="cls-1" d="M24.11,57c.62,2.1-1.12,2.52-2.12,3.46C21.19,59.44,21.38,59.11,24.11,57Z"/><path class="cls-1" d="M5.18,54.89c-.39-1.39.76-2.92,2.57-3.32A5.68,5.68,0,0,1,5.18,54.89Z"/><path class="cls-1" d="M21.55,64.56,24,62C24.42,63.91,23.35,65,21.55,64.56Z"/><path class="cls-1" d="M27.86,64.25a16.06,16.06,0,0,1-2,.59c-.19,0-.45-.37-.68-.58.21-.17.41-.47.64-.5.65-.06,1.31,0,2,0Z"/><path class="cls-1" d="M15.89,62.45l1.81-1.66c.05.47.28,1.14.11,1.26a7.42,7.42,0,0,1-1.76.73Z"/><path class="cls-1" d="M5.51,57.36C4.67,56,4.8,55.7,6.58,54.73Z"/><path class="cls-1" d="M6.9,63.13l.64,1.68-2-.14-.22-.42Z"/><path class="cls-1" d="M6.24,61.61c.82,1.39-.53,1.59-1.12,2.44C4.69,62.7,5.48,62.22,6.24,61.61Z"/><path class="cls-1" d="M6,57.12c0,1,.42,1.91-.81,2.34C4.65,58.49,5,57.8,6,57.12Z"/><path class="cls-1" d="M25.76,42.8l3.74-.56C28.38,43.83,27,42.9,25.76,42.8Z"/><path class="cls-1" d="M4.87,61.63l.72-2c1,1.15.35,1.63-.35,2.11Z"/><path class="cls-1" d="M61.17,36.27v6.66c-1.56,0-3.1,0-4.64,0-.22,0-.59-.49-.61-.76-.07-1.71-.08-3.42,0-5.12a1,1,0,0,1,.65-.71C58,36.24,59.54,36.27,61.17,36.27Z"/><path class="cls-1" d="M58.18,107.63a2.82,2.82,0,1,1,2.9-2.76A2.91,2.91,0,0,1,58.18,107.63Zm1.45-1.06c-.06-.67-.33-1.32-.12-1.73.64-1.25.42-1.82-1-2-1.79-.18-1.84-.14-1.84,1.7a2.88,2.88,0,0,0,0,.83,11.84,11.84,0,0,0,.53,1.22c.16-.39.33-.77.5-1.16a1.5,1.5,0,0,1,.19-.25C58.66,105.49,58.43,107,59.63,106.57Z"/><path class="cls-1" d="M85.22,39.11V24.26h1.29c2.72,0,5.46.19,8.16,0,5.3-.44,8.39,4.83,7.46,9.23-.68,3.18-2.61,6.07-7.09,5.84-3.15-.16-6.32,0-9.48-.06A1.74,1.74,0,0,1,85.22,39.11Z"/><path class="cls-1" d="M119.15,44.69c0-3.55,1.06-6.61,3.86-8.83A8,8,0,0,1,135,38a10.78,10.78,0,0,1,.51,11.29,8.37,8.37,0,0,1-8.58,4.7,9.14,9.14,0,0,1-7.39-7C119.34,46.23,119.26,45.43,119.15,44.69Z"/><path class="cls-1" d="M36.75,35.49V26.75h6.6c-.16,1-.33,1.92-.45,2.84-.22,1.66-.42,3.32-.61,5,0,.51-.07,1-.77.93C40,35.47,38.42,35.49,36.75,35.49Z"/><path class="cls-1" d="M286.29,49.82h-8.91c-.27,0-.54,0-.8-.07a4.77,4.77,0,0,1,4.94-4.64A4.83,4.83,0,0,1,286.29,49.82Z"/><path class="cls-1" d="M234,92.43c0,1.82-.95,2.89-2.58,2.9a2.94,2.94,0,0,1-2.89-3,3.05,3.05,0,0,1,2.72-3.23C232.88,89.07,234,90.42,234,92.43Z"/><path class="cls-1" d="M222.66,91.45h-5.35a2.52,2.52,0,0,1,2.39-2.6C221.16,88.69,222.35,89.7,222.66,91.45Z"/><path class="cls-1" d="M276.79,92.22a2.76,2.76,0,1,1-5.49.08A3,3,0,0,1,274,89.07,2.91,2.91,0,0,1,276.79,92.22Z"/><path class="cls-1" d="M86.18,92.19a2.77,2.77,0,1,1-5.51.08,3.06,3.06,0,0,1,2.74-3.2A2.93,2.93,0,0,1,86.18,92.19Z"/><path class="cls-1" d="M250.41,92.09c.61.36,1.52.58,1.77,1.11.41.89-.42,1.89-1.59,2.24a4.18,4.18,0,0,1-.94.13,1.71,1.71,0,0,1-1.92-1.41c-.17-.81.55-1.57,1.59-1.76a7.45,7.45,0,0,1,1-.07Z"/><path class="cls-1" d="M174.57,95.75c-1.2-.17-2-.78-2-1.7,0-1.11.77-1.51,1.69-1.66a4.19,4.19,0,0,1,1.54,0c.46.11,1.2.39,1.22.64a2.37,2.37,0,0,1-.51,1.69A6.93,6.93,0,0,1,174.57,95.75Z"/><path class="cls-1" d="M298.1,40.38a3.58,3.58,0,0,1-3.75,3.67,3.63,3.63,0,0,1-3.73-3.58,3.74,3.74,0,0,1,7.48-.09Zm-2.6.7c.71-.7,1.2-1.49.57-2.43-.9-1.35-2.26-.68-3.6-.8,0,1.6,0,3.06,0,4.52,0,.24.5.45.94.82l.17-1.88.31-.2A12.64,12.64,0,0,0,295,42.24a10.39,10.39,0,0,0,1.26.81l.21-.31Z"/><path d="M8.26,65.63h9.5a3.73,3.73,0,0,1-.1,1c-1.13,2.52-1,5.19-1.15,7.86a7.91,7.91,0,0,1-1.11,2.82,1.07,1.07,0,0,1-.81.39c-1.67,0-3.34,0-5.19,0C10.83,73.44,8.58,69.67,8.26,65.63Z"/><path d="M15.77,89.34l4.62,2.27C19,93.48,17.09,91.84,15.77,89.34Z"/><path d="M15.21,81.25c-.21-2,.16-2.7,1.38-2.45Z"/><path d="M8.72,42.73c2.07-.53,2.61-.2,3,1.71.27,1.36.62,2.71.92,4.07a5.84,5.84,0,0,1,0,.9L9.57,48.08C9.3,46.36,9,44.54,8.72,42.73Z"/><path d="M59.63,106.57c-1.2.44-1-1.08-1.7-1.35a1.5,1.5,0,0,0-.19.25c-.17.39-.34.77-.5,1.16a11.84,11.84,0,0,1-.53-1.22,2.88,2.88,0,0,1,0-.83c0-1.84,0-1.88,1.84-1.7,1.39.14,1.61.71,1,2C59.3,105.25,59.57,105.9,59.63,106.57Z"/><path d="M295.5,41.08l1,1.66-.21.31a10.39,10.39,0,0,1-1.26-.81,12.64,12.64,0,0,1-1.06-1.13l-.31.2-.17,1.88c-.44-.37-.93-.58-.94-.82-.07-1.46,0-2.92,0-4.52,1.34.12,2.7-.55,3.6.8C296.7,39.59,296.21,40.38,295.5,41.08Zm-1.91-.65a7,7,0,0,0,1.53-.51c.13-.08.1-.78,0-.83a7.84,7.84,0,0,0-1.52-.39Z"/><path class="cls-1" d="M293.59,40.43V38.7a7.84,7.84,0,0,1,1.52.39c.11,0,.14.75,0,.83A7,7,0,0,1,293.59,40.43Z"/></svg>